<svg xmlns="http://www.w3.org/2000/svg" xmlns:xlink="http://www.w3.org/1999/xlink" width="1925.372" height="700.23" viewBox="0 0 1925.372 700.23">
  <defs>
    <linearGradient id="linear-gradient" x1="0.021" y1="0.709" x2="0.958" y2="0.079" gradientUnits="objectBoundingBox">
      <stop offset="0" stop-color="#4981fb"/>
      <stop offset="1" stop-color="#94b3f8"/>
    </linearGradient>
  </defs>
  <path id="Path_838" data-name="Path 838" d="M1175.209,510.651c13.722-6.111,1.482-.973,33.212-15.52,2.23-1.023,14.132.309,17.127,2.107,101.78,61.1,80.142-41.641,460.474,166.1,2.164,1.182,9.051,4.334,14.251.412,214.054-125.932,71.416-42.179,213.03-125.194-4.555-566.6-2.278-101.084,3.507-573.129C-3.431-30-8.561-30.473-8.561-30.473s.473,5.064,0,209.473c570.633.021.483-1.823,573.453-.041,3.9.012,13.645-1.593,31.12,8.626,158.625,86.456,480.143,277.791,549.813,318.461C1151.5,509.357,1162.2,516.446,1175.209,510.651Z" transform="translate(8.562 34.569)" fill="url(#linear-gradient)"/>
</svg>
