<svg xmlns="http://www.w3.org/2000/svg" width="946.343" height="74.719" viewBox="0 0 946.343 74.719">
  <g id="Group_1778" data-name="Group 1778" transform="translate(-474 -4774.676)">
    <g id="innovaccer-logo-black" transform="translate(796.997 4774.676)">
      <path id="Path_2260" data-name="Path 2260" d="M40.471,9.543c0-3.915,3.385-6.866,7.411-6.866a7.044,7.044,0,0,1,5.092,1.916,6.911,6.911,0,0,1,2.167,4.948,7.075,7.075,0,0,1-7.259,6.866c-4.028,0-7.413-3.11-7.413-6.866Zm1.452,12.533H53.85V59.287H41.923Zm54.73,17.168V59.287H84.724V40.6c0-5.751-3.546-7.909-6.534-7.909-3.224,0-7.25,1.68-7.25,7.909V59.285H59.01V22.076H70.938v6.632c1.293-5.3,7.252-7.568,10.806-7.568,9.989-.017,14.91,6.69,14.91,18.1Zm42.319,0V59.287h-11.93V40.6c0-5.751-3.544-7.909-6.532-7.909-3.226,0-7.252,1.68-7.252,7.909V59.285h-11.93V22.076h11.93v6.632c1.291-5.3,7.25-7.568,10.8-7.568C134.051,21.122,138.973,27.829,138.973,39.243Zm2.5,1.362c0-11.815,9.674-19.483,20.4-19.483s20.512,7.638,20.512,19.483-9.751,19.4-20.472,19.4-20.435-7.668-20.435-19.4Zm28.694,0a8.306,8.306,0,1,0-16.606,0,8.3,8.3,0,1,0,16.591,0h.015ZM221.68,22.078,205.717,59.287h-10.4L179.359,22.076h12.992l8.224,22.117,8.138-22.117H221.68Zm39.011,0V59.287H248.863V55.055c-2.744,3.513-7.827,4.951-11.694,4.951-9.344,0-18.217-7.349-18.217-19.4s8.855-19.414,18.2-19.414c3.867,0,8.949,1.437,11.692,4.949V22.068l11.845.007ZM248.357,40.605a8.58,8.58,0,0,0-5.214-8.078,8.728,8.728,0,0,0-9.519,1.748,8.524,8.524,0,0,0-1.945,9.393,8.668,8.668,0,0,0,8.057,5.317A8.559,8.559,0,0,0,248.357,40.605Zm15.324-.082c0-11.815,9.749-19.4,20.716-19.4a19.415,19.415,0,0,1,16.444,8.78l-9.17,5.751a9.138,9.138,0,0,0-7.175-3.593c-5.48,0-8.7,3.829-8.7,8.462a8.273,8.273,0,0,0,8.7,8.544,9.2,9.2,0,0,0,7.175-3.6l9.17,5.746A19.319,19.319,0,0,1,284.4,60c-10.967,0-20.718-7.666-20.718-19.483Zm36.671,0c0-11.815,9.76-19.4,20.718-19.4a19.391,19.391,0,0,1,16.444,8.78l-9.17,5.751a9.146,9.146,0,0,0-7.175-3.593c-5.48,0-8.7,3.829-8.7,8.462a8.272,8.272,0,0,0,8.7,8.544,9.2,9.2,0,0,0,7.175-3.595l9.17,5.746A19.307,19.307,0,0,1,321.07,60c-10.959,0-20.718-7.666-20.718-19.483Zm76.587,3.595H349.427c1.124,3.513,4.271,5.586,8.78,5.586a14.284,14.284,0,0,0,9.515-3.6l6.113,7.67c-3.713,4-10.154,6.229-16.529,6.229C345.461,60.006,337,52.1,337,40.767c0-12.113,9.513-19.644,20.311-19.644s19.831,7.426,19.831,18.764a36.478,36.478,0,0,1-.2,4.232Zm-11.694-6.95c-.075-3.67-3.385-6.053-7.641-6.053-3.629,0-7.014,1.6-8.222,6.055h15.864Zm43.368-14.931L405.793,33.5a10.778,10.778,0,0,0-5.4-1.437c-4.676,0-8.543,3.829-8.543,14.85V59.287h-11.93V22.076h11.768V29.9c2.179-6.145,6.688-8.78,11.287-8.78a12.327,12.327,0,0,1,5.639,1.113Z" transform="translate(35.342 2.334)"/>
      <path id="Path_2261" data-name="Path 2261" d="M16.895,24.81.546,49.3a3.213,3.213,0,0,0-.154,3.32,3.275,3.275,0,0,0,2.881,1.7h32.7a3.272,3.272,0,0,0,2.879-1.7A3.213,3.213,0,0,0,38.7,49.3L22.356,24.8a3.3,3.3,0,0,0-5.465.007Z" transform="translate(0 20.394)" fill="#e81f76" fill-rule="evenodd"/>
      <path id="Path_2262" data-name="Path 2262" d="M16.894,29.528.546,5.024A3.213,3.213,0,0,1,.394,1.7,3.279,3.279,0,0,1,3.275,0h32.7a3.276,3.276,0,0,1,2.879,1.7A3.214,3.214,0,0,1,38.7,5.026l-16.345,24.5a3.29,3.29,0,0,1-5.465,0Z" transform="translate(0)" fill="#e81f76" fill-rule="evenodd" opacity="0.2"/>
      <path id="Path_2263" data-name="Path 2263" d="M29.675,4.265,13.33,28.767a3.222,3.222,0,0,0-.15,3.325A3.288,3.288,0,0,0,16.065,33.8h32.69a3.282,3.282,0,0,0,2.881-1.712,3.222,3.222,0,0,0-.15-3.321L35.14,4.263a3.3,3.3,0,0,0-5.465,0Z" transform="translate(11.167 2.457)" fill="#e81f76" fill-rule="evenodd" opacity="0.4"/>
      <path id="Path_2264" data-name="Path 2264" d="M35.139,50.223l16.345-24.5a3.222,3.222,0,0,0,.15-3.321,3.282,3.282,0,0,0-2.877-1.71H16.067A3.276,3.276,0,0,0,13.182,22.4a3.222,3.222,0,0,0,.148,3.325l16.345,24.5a3.3,3.3,0,0,0,5.465,0Z" transform="translate(11.167 18.067)" fill="#e81f76" fill-rule="evenodd" opacity="0.7"/>
    </g>
    <g id="avalara" transform="translate(474 4798)">
      <path id="Path_2265" data-name="Path 2265" d="M55.666,74.908s-1.844-2.259-2.934-3.48L51.2,75.038c2.207,3.272,3.661,6.1,4.466,7.452C57.224,79.842,61.041,72,68.909,64.651L68.026,62.6a67.461,67.461,0,0,0-12.36,12.308" transform="translate(-37.905 -46.345)" fill="#707070"/>
      <path id="Path_2266" data-name="Path 2266" d="M355.639,29.317c0,2.1,1.22,3.194,3.168,3.506v5.115c-5.817-.078-8.907-2.882-8.907-8.206V0h5.739Z" transform="translate(-259.042)" fill="#707070" fill-rule="evenodd"/>
      <path id="Path_2267" data-name="Path 2267" d="M404.68,42.6A13.018,13.018,0,0,0,391.8,55.947c0,7.452,5.5,13.347,12.386,13.347a10.376,10.376,0,0,0,7.972-3.246l.312.1v2.623h5.765V43.119H412.47v1.792l-.26.1a11.339,11.339,0,0,0-7.53-2.415m.7,21.89c-4.311,0-7.868-3.739-7.868-8.517,0-4.83,3.557-8.517,7.868-8.517a11.636,11.636,0,0,1,7.037,2.155V60.595a7.47,7.47,0,0,1-7.037,3.9" transform="translate(-290.062 -31.538)" fill="#707070" fill-rule="evenodd"/>
      <path id="Path_2268" data-name="Path 2268" d="M511.826,68.852h5.739V50.883a10,10,0,0,1,7.245-3.038h1.22V42.6H525.3a9.606,9.606,0,0,0-7.453,3.531l-.312-.1V43.119H511.8V68.852Z" transform="translate(-378.902 -31.538)" fill="#707070" fill-rule="evenodd"/>
      <path id="Path_2269" data-name="Path 2269" d="M242.906,42.6A13.055,13.055,0,0,0,230,55.947c0,7.452,5.5,13.347,12.386,13.347a10.416,10.416,0,0,0,7.972-3.246l.312.1v2.623h5.765V43.119H250.67v1.792l-.26.1a11.213,11.213,0,0,0-7.5-2.415m.7,21.89c-4.31,0-7.868-3.739-7.868-8.517,0-4.83,3.531-8.517,7.868-8.517a11.636,11.636,0,0,1,7.037,2.155V60.595a7.47,7.47,0,0,1-7.037,3.9" transform="translate(-170.276 -31.538)" fill="#707070" fill-rule="evenodd"/>
      <path id="Path_2270" data-name="Path 2270" d="M583.78,42.6A13.018,13.018,0,0,0,570.9,55.947c0,7.452,5.5,13.347,12.386,13.347a10.416,10.416,0,0,0,7.972-3.246l.312.1v2.623h5.765V43.119H591.57v1.792l-.26.1a11.339,11.339,0,0,0-7.53-2.415m.7,21.89c-4.31,0-7.842-3.739-7.842-8.517,0-4.83,3.531-8.517,7.842-8.517a11.636,11.636,0,0,1,7.037,2.155V60.595a7.47,7.47,0,0,1-7.037,3.9" transform="translate(-422.656 -31.538)" fill="#707070" fill-rule="evenodd"/>
      <path id="Path_2271" data-name="Path 2271" d="M102.754,105.691h6.258l-5.5-13.191A61.583,61.583,0,0,0,99.3,97.512Z" transform="translate(-73.515 -68.481)" fill="#707070"/>
      <path id="Path_2272" data-name="Path 2272" d="M144.065,44.7l-8.024,18.774h-.312L127.706,44.7H121.5l11.451,25.6h5.843l11.451-25.6Z" transform="translate(-89.95 -33.093)" fill="#707070"/>
      <path id="Path_2273" data-name="Path 2273" d="M20.488,5.3h-5.5L0,41.134H6.258L17.086,15.583l.519-1.376h.286l.519,1.376,3.22,7.582a59.608,59.608,0,0,1,4.622-4.155Z" transform="translate(0 -3.924)" fill="#707070"/>
    </g>
    <path id="niki" d="M32.143,19.718a2.668,2.668,0,1,0,2.823,2.654,2.753,2.753,0,0,0-2.823-2.654m-10.423,0a2.668,2.668,0,1,0,2.826,2.649,2.751,2.751,0,0,0-2.826-2.649m16.1,17.454H32.222c-.872,0-1.134.245-1.134,1.052V42.77c0,.886.234,1.112,1.177,1.112h18.9c.91,0,1.172-.237,1.172-1.074q.012-2.273,0-4.545c0-.839-.267-1.09-1.161-1.09h-5.6v-.709c0-5.952.008-11.909-.005-17.863a33.093,33.093,0,0,0-.5-6.24c-.921-4.774-3.9-7.8-8.772-9.211a20.741,20.741,0,0,0-9.372-.414,41.694,41.694,0,0,0-9.565,3.071c-.491.215-.989.422-1.559.662A11.537,11.537,0,0,0,15.8,5.194a13.01,13.01,0,0,0-.343-2.106,3.031,3.031,0,0,0-2.951-2.2,3.492,3.492,0,0,0-2.989,1.2A7.029,7.029,0,0,1,5.606,4.324c-1.523.322-3.093.463-4.646.654-.706.087-1.044.354-.94.943.267,1.545.556,3.088.856,4.627a.806.806,0,0,0,1.008.659c1.117-.142,2.232-.294,3.346-.436.946-.123,1.894-.237,2.864-.36v26.76H2.527c-.9.005-1.164.251-1.164,1.087-.005,1.515,0,3.03,0,4.545,0,.818.256,1.066,1.115,1.068l18.956.008c.935,0,1.169-.223,1.172-1.123V38.268c-.005-.856-.256-1.093-1.15-1.1h-5.6c-.011-.21-.027-.346-.027-.482q-.008-11.1-.025-22.2a.712.712,0,0,1,.452-.689,45.191,45.191,0,0,1,7.134-3.325,21.706,21.706,0,0,1,8.573-1.322c2.812.172,4.674,1.5,5.319,4.077a17.791,17.791,0,0,1,.526,4.134c.057,6.423.033,12.849.038,19.275,0,.153-.019.308-.033.534" transform="translate(1367.999 4794.118)" fill="#707070" fill-rule="evenodd"/>
  </g>
</svg>
