<svg xmlns="http://www.w3.org/2000/svg" xmlns:xlink="http://www.w3.org/1999/xlink" width="790" height="790" viewBox="0 0 790 790">
  <defs>
    <clipPath id="clip-path">
      <rect id="Rectangle_16" data-name="Rectangle 16" width="790" height="790" transform="translate(0 -0.426)"/>
    </clipPath>
    <linearGradient id="linear-gradient" x1="-0.385" y1="0.991" x2="4.583" y2="-1.769" gradientUnits="objectBoundingBox">
      <stop offset="0" stop-color="#4981fb" stop-opacity="0"/>
      <stop offset="0.211" stop-color="#6690fb" stop-opacity="0.212"/>
      <stop offset="0.562" stop-color="#91a5fb" stop-opacity="0.561"/>
      <stop offset="0.836" stop-color="#acb3fc" stop-opacity="0.839"/>
      <stop offset="0.999" stop-color="#b5b8fc"/>
    </linearGradient>
    <linearGradient id="linear-gradient-2" x1="-0.434" y1="1.15" x2="2.407" y2="-0.827" xlink:href="#linear-gradient"/>
    <linearGradient id="linear-gradient-3" x1="0.15" y1="0.836" x2="1.833" y2="-0.782" xlink:href="#linear-gradient"/>
    <linearGradient id="linear-gradient-4" x1="0.151" y1="0.824" x2="2.542" y2="-1.397" xlink:href="#linear-gradient"/>
    <linearGradient id="linear-gradient-5" x1="-0.176" y1="0.845" x2="1.432" y2="0.024" xlink:href="#linear-gradient"/>
    <linearGradient id="linear-gradient-6" x1="-0.146" y1="0.882" x2="4.245" y2="-1.716" xlink:href="#linear-gradient"/>
    <linearGradient id="linear-gradient-7" x1="-0.268" y1="1.07" x2="2.243" y2="-0.792" xlink:href="#linear-gradient"/>
    <linearGradient id="linear-gradient-8" x1="0.245" y1="0.761" x2="1.732" y2="-0.762" xlink:href="#linear-gradient"/>
    <linearGradient id="linear-gradient-9" x1="0.28" y1="0.718" x2="2.393" y2="-1.372" xlink:href="#linear-gradient"/>
    <linearGradient id="linear-gradient-10" x1="-0.096" y1="0.824" x2="1.326" y2="0.051" xlink:href="#linear-gradient"/>
    <linearGradient id="linear-gradient-11" x1="0.5" y1="1.915" x2="0.5" y2="0.427" gradientUnits="objectBoundingBox">
      <stop offset="0" stop-color="#e1eafd" stop-opacity="0"/>
      <stop offset="0.594" stop-color="#cad6fa" stop-opacity="0.596"/>
      <stop offset="0.999" stop-color="#c1cdf8"/>
    </linearGradient>
    <linearGradient id="linear-gradient-12" x1="0.5" y1="0.988" x2="0.5" y2="0.053" xlink:href="#linear-gradient-11"/>
    <linearGradient id="linear-gradient-13" x1="-3653.432" y1="-1767.721" x2="3655.131" y2="1768.472" gradientUnits="objectBoundingBox">
      <stop offset="0" stop-color="#fcfdff"/>
      <stop offset="0.213" stop-color="#eff5fe"/>
      <stop offset="0.706" stop-color="#d4e5fd"/>
      <stop offset="0.999" stop-color="#cbdffd"/>
    </linearGradient>
    <linearGradient id="linear-gradient-14" x1="-83.434" y1="-10801.518" x2="88.8" y2="11365.568" xlink:href="#linear-gradient-13"/>
    <linearGradient id="linear-gradient-15" x1="0.5" y1="0.844" x2="0.5" y2="-0.101" gradientUnits="objectBoundingBox">
      <stop offset="0" stop-color="#e1eafd" stop-opacity="0"/>
      <stop offset="0.155" stop-color="#fff" stop-opacity="0.224"/>
      <stop offset="0.594" stop-color="#c5d4fe"/>
      <stop offset="0.999" stop-color="#dee5fc"/>
      <stop offset="1" stop-color="#c1cdf8"/>
    </linearGradient>
    <linearGradient id="linear-gradient-16" x1="0.5" y1="0.921" x2="0.5" y2="0.009" gradientUnits="objectBoundingBox">
      <stop offset="0" stop-color="#e1eafd" stop-opacity="0"/>
      <stop offset="0.27" stop-color="#fff" stop-opacity="0.071"/>
      <stop offset="0.309" stop-color="#dde7fd" stop-opacity="0.098"/>
      <stop offset="0.699" stop-color="#cad6fa" stop-opacity="0.596"/>
      <stop offset="0.999" stop-color="#c1cdf8"/>
      <stop offset="1" stop-color="#c1cdf8"/>
    </linearGradient>
    <linearGradient id="linear-gradient-17" x1="0.5" y1="0.95" x2="0.5" y2="0.001" xlink:href="#linear-gradient-11"/>
    <linearGradient id="linear-gradient-18" x1="0.5" y1="0.732" x2="0.5" y2="-0.102" xlink:href="#linear-gradient-11"/>
    <linearGradient id="linear-gradient-19" x1="0.5" y1="0.725" x2="0.5" y2="-0.109" xlink:href="#linear-gradient-11"/>
    <linearGradient id="linear-gradient-20" x1="1.188" y1="-0.447" x2="-1.298" y2="2.975" gradientUnits="objectBoundingBox">
      <stop offset="0" stop-color="#fff"/>
      <stop offset="0.338" stop-color="#e5eafc" stop-opacity="0.663"/>
      <stop offset="0.753" stop-color="#cad5f9" stop-opacity="0.247"/>
      <stop offset="0.999" stop-color="#c1cdf8" stop-opacity="0"/>
    </linearGradient>
    <linearGradient id="linear-gradient-21" x1="1.327" y1="-0.637" x2="-1.16" y2="2.785" xlink:href="#linear-gradient-20"/>
    <linearGradient id="linear-gradient-22" x1="10.468" y1="-4.929" x2="-15.394" y2="9.155" xlink:href="#linear-gradient-20"/>
    <linearGradient id="linear-gradient-23" x1="8.277" y1="-3.743" x2="-17.536" y2="10.341" xlink:href="#linear-gradient-20"/>
    <linearGradient id="linear-gradient-24" x1="6.115" y1="-2.558" x2="-19.747" y2="11.526" xlink:href="#linear-gradient-20"/>
    <linearGradient id="linear-gradient-25" x1="3.938" y1="-1.372" x2="-21.925" y2="12.712" xlink:href="#linear-gradient-20"/>
    <linearGradient id="linear-gradient-26" x1="1.759" y1="-0.187" x2="-24.053" y2="13.897" xlink:href="#linear-gradient-20"/>
    <radialGradient id="radial-gradient" cx="38.962" cy="10.626" r="42.777" gradientUnits="userSpaceOnUse">
      <stop offset="0" stop-color="#e7f2fe"/>
      <stop offset="0.042" stop-color="#e5effe"/>
      <stop offset="0.527" stop-color="#cad6fa"/>
      <stop offset="0.814" stop-color="#c1cdf8"/>
      <stop offset="0.857" stop-color="#c8d2f9"/>
      <stop offset="0.918" stop-color="#dbe2fb"/>
      <stop offset="0.992" stop-color="#fbfcff"/>
      <stop offset="1" stop-color="#fff"/>
    </radialGradient>
    <linearGradient id="linear-gradient-27" x1="0.984" y1="0.202" x2="-0.462" y2="1.092" gradientUnits="objectBoundingBox">
      <stop offset="0" stop-color="#e7f2fe"/>
      <stop offset="0.051" stop-color="#e5effe"/>
      <stop offset="0.646" stop-color="#cad6fa"/>
      <stop offset="0.999" stop-color="#c1cdf8"/>
    </linearGradient>
    <linearGradient id="linear-gradient-28" x1="0.5" y1="1.228" x2="0.5" y2="0.355" gradientUnits="objectBoundingBox">
      <stop offset="0" stop-color="#83e8fe"/>
      <stop offset="1" stop-color="#fff" stop-opacity="0"/>
    </linearGradient>
    <radialGradient id="radial-gradient-2" cx="38.971" cy="10.616" r="42.777" xlink:href="#radial-gradient"/>
    <linearGradient id="linear-gradient-29" x1="0.984" y1="0.202" x2="-0.462" y2="1.092" xlink:href="#linear-gradient-27"/>
    <linearGradient id="linear-gradient-30" x1="0.5" y1="1.228" x2="0.5" y2="0.355" xlink:href="#linear-gradient-28"/>
    <linearGradient id="linear-gradient-31" x1="0.802" y1="0.36" x2="-1.469" y2="1.415" gradientUnits="objectBoundingBox">
      <stop offset="0" stop-color="#fff"/>
      <stop offset="0.614" stop-color="#dae1fb"/>
      <stop offset="0.999" stop-color="#c1cdf8"/>
    </linearGradient>
    <linearGradient id="linear-gradient-32" x1="1.176" y1="0.014" x2="-0.053" y2="0.945" xlink:href="#linear-gradient-27"/>
    <linearGradient id="linear-gradient-33" x1="0.5" y1="1.207" x2="0.5" y2="-0.086" gradientUnits="objectBoundingBox">
      <stop offset="0.072" stop-color="#87d0fd"/>
      <stop offset="0.165" stop-color="#7ec3ec" stop-opacity="0.898"/>
      <stop offset="0.349" stop-color="#68a0c0" stop-opacity="0.702"/>
      <stop offset="0.608" stop-color="#456979" stop-opacity="0.424"/>
      <stop offset="0.927" stop-color="#141e18" stop-opacity="0.078"/>
      <stop offset="1" stop-color="#080c01" stop-opacity="0"/>
    </linearGradient>
    <linearGradient id="linear-gradient-34" x1="1.021" y1="0.478" x2="-0.013" y2="0.522" gradientUnits="objectBoundingBox">
      <stop offset="0" stop-color="#83e8fe"/>
      <stop offset="0.184" stop-color="#76d0fd"/>
      <stop offset="0.547" stop-color="#5ea5fc"/>
      <stop offset="0.831" stop-color="#4f8bfc"/>
      <stop offset="0.999" stop-color="#4981fb"/>
    </linearGradient>
    <linearGradient id="linear-gradient-35" x1="1.045" y1="0.349" x2="0.117" y2="0.525" xlink:href="#linear-gradient-27"/>
    <linearGradient id="linear-gradient-36" x1="0.5" y1="1.068" x2="0.5" y2="0.027" xlink:href="#linear-gradient-34"/>
    <linearGradient id="linear-gradient-37" x1="0.5" y1="1.135" x2="0.5" y2="0.136" xlink:href="#linear-gradient-28"/>
    <linearGradient id="linear-gradient-38" x1="1.176" y1="0.014" x2="-0.053" y2="0.945" xlink:href="#linear-gradient-27"/>
    <linearGradient id="linear-gradient-39" x1="0.5" y1="1.207" x2="0.5" y2="-0.087" xlink:href="#linear-gradient-33"/>
    <linearGradient id="linear-gradient-40" x1="1.53" y1="0.22" x2="-1.28" y2="0.983" xlink:href="#linear-gradient-27"/>
    <linearGradient id="linear-gradient-41" x1="1.254" y1="0.971" x2="0.178" y2="0.305" xlink:href="#linear-gradient-31"/>
    <linearGradient id="linear-gradient-42" x1="1.531" y1="0.22" x2="-1.279" y2="0.983" xlink:href="#linear-gradient-27"/>
    <linearGradient id="linear-gradient-43" x1="1.254" y1="0.971" x2="0.178" y2="0.305" xlink:href="#linear-gradient-31"/>
    <linearGradient id="linear-gradient-44" x1="0.5" y1="1" x2="0.5" y2="0.082" gradientUnits="objectBoundingBox">
      <stop offset="0" stop-color="#e7f2fe" stop-opacity="0"/>
      <stop offset="0.051" stop-color="#e5effe" stop-opacity="0.051"/>
      <stop offset="0.646" stop-color="#cad6fa" stop-opacity="0.647"/>
      <stop offset="0.999" stop-color="#c1cdf8"/>
      <stop offset="1" stop-color="#c1cdf8"/>
    </linearGradient>
    <linearGradient id="linear-gradient-45" x1="0.946" y1="0.523" x2="-0.015" y2="0.488" xlink:href="#linear-gradient-27"/>
    <linearGradient id="linear-gradient-46" x1="1.041" y1="0.291" x2="0.012" y2="0.689" xlink:href="#linear-gradient-34"/>
    <linearGradient id="linear-gradient-47" x1="-0.036" y1="0.042" x2="0.991" y2="0.97" xlink:href="#linear-gradient-34"/>
    <linearGradient id="linear-gradient-48" x1="0.5" y1="0.769" x2="0.5" y2="0.082" gradientUnits="objectBoundingBox">
      <stop offset="0" stop-color="#e7f2fe" stop-opacity="0"/>
      <stop offset="0.339" stop-color="#e5effe" stop-opacity="0.051"/>
      <stop offset="0.646" stop-color="#cad6fa" stop-opacity="0.647"/>
      <stop offset="0.999" stop-color="#c1cdf8"/>
      <stop offset="1" stop-color="#c1cdf8"/>
    </linearGradient>
    <linearGradient id="linear-gradient-49" x1="0.946" y1="0.524" x2="-0.015" y2="0.488" xlink:href="#linear-gradient-27"/>
    <linearGradient id="linear-gradient-50" x1="1.041" y1="0.29" x2="0.012" y2="0.689" xlink:href="#linear-gradient-34"/>
    <linearGradient id="linear-gradient-51" x1="-0.036" y1="0.042" x2="0.991" y2="0.971" xlink:href="#linear-gradient-34"/>
    <linearGradient id="linear-gradient-52" x1="-5.706" y1="0.629" x2="-4.815" y2="0.326" gradientUnits="objectBoundingBox">
      <stop offset="0.071" stop-color="#995e73"/>
      <stop offset="0.603" stop-color="#895165"/>
      <stop offset="0.999" stop-color="#794458"/>
    </linearGradient>
    <linearGradient id="linear-gradient-53" x1="-15.541" y1="0.971" x2="-16.618" y2="0.305" xlink:href="#linear-gradient-31"/>
    <linearGradient id="linear-gradient-54" x1="28.571" y1="0.918" x2="29.264" y2="0.071" gradientUnits="objectBoundingBox">
      <stop offset="0.071" stop-color="#edc3b6"/>
      <stop offset="0.322" stop-color="#e6b7a5"/>
      <stop offset="0.815" stop-color="#d4987a"/>
      <stop offset="0.999" stop-color="#cd8b68"/>
    </linearGradient>
    <linearGradient id="linear-gradient-55" x1="1.128" y1="0.677" x2="-0.101" y2="0.33" gradientUnits="objectBoundingBox">
      <stop offset="0" stop-color="#e8e8fe"/>
      <stop offset="1" stop-color="#bfbff4"/>
    </linearGradient>
    <linearGradient id="linear-gradient-56" x1="-0.204" y1="-0.365" x2="-0.204" y2="0.435" gradientUnits="objectBoundingBox">
      <stop offset="0.071" stop-color="#7549dd"/>
      <stop offset="0.277" stop-color="#6a3ccc"/>
      <stop offset="0.684" stop-color="#4f1ca1"/>
      <stop offset="1" stop-color="#36007b"/>
    </linearGradient>
    <linearGradient id="linear-gradient-57" x1="18.588" y1="0.986" x2="17.828" y2="0.362" xlink:href="#linear-gradient-56"/>
    <linearGradient id="linear-gradient-58" x1="53.677" y1="1.061" x2="53.677" y2="-0.034" gradientUnits="objectBoundingBox">
      <stop offset="0.07" stop-color="#7549dd"/>
      <stop offset="0.277" stop-color="#6a3ccc"/>
      <stop offset="0.684" stop-color="#4f1ca1"/>
      <stop offset="1" stop-color="#36007b"/>
    </linearGradient>
    <linearGradient id="linear-gradient-59" x1="31.841" y1="0.981" x2="31.045" y2="0.122" xlink:href="#linear-gradient-54"/>
    <linearGradient id="linear-gradient-60" x1="22.735" y1="0.843" x2="23.347" y2="0.242" xlink:href="#linear-gradient-54"/>
  </defs>
  <g id="illustartion" transform="translate(0 0.426)">
    <g id="Group_131" data-name="Group 131" clip-path="url(#clip-path)">
      <g id="Group_125" data-name="Group 125" transform="translate(387.75 170.057)">
        <path id="Path_294" data-name="Path 294" d="M506.449,190.539l22.731-13.118c3.71-2.147,3.71-5.6,0-7.751l-98.343-56.78a14.782,14.782,0,0,0-13.418,0l-58.469,33.749a14.782,14.782,0,0,1-13.418,0l-32.423-18.722a14.782,14.782,0,0,0-13.418,0l-51.271,29.6c-3.71,2.147-3.71,5.6,0,7.751l51.271,29.6a14.782,14.782,0,0,0,13.418,0l11.4-6.583a14.782,14.782,0,0,1,13.418,0l79.5,45.888a14.782,14.782,0,0,0,13.418,0l17.79-10.276a14.782,14.782,0,0,1,13.418,0l24.483,14.144a14.782,14.782,0,0,0,13.418,0l30.987-17.885c3.71-2.147,3.71-5.6,0-7.751l-24.483-14.144C502.739,196.143,502.739,192.67,506.449,190.539Z" transform="translate(-245.637 -105.676)" fill="#c5d9fe"/>
        <path id="Path_295" data-name="Path 295" d="M347.25,213.792l11.35,6.551a14.782,14.782,0,0,0,13.418,0l11.35-6.551c3.71-2.147,3.71-5.6,0-7.751l-11.35-6.551a14.782,14.782,0,0,0-13.418,0l-11.35,6.551C343.54,208.172,343.54,211.645,347.25,213.792Z" transform="translate(-188.46 -55.574)" fill="#c5d9fe"/>
        <path id="Path_296" data-name="Path 296" d="M348.927,115.891l-11.35-6.551a14.782,14.782,0,0,0-13.418,0l-11.35,6.551c-3.71,2.147-3.71,5.6,0,7.751l11.35,6.551a14.782,14.782,0,0,0,13.418,0l11.35-6.551C352.636,121.511,352.636,118.038,348.927,115.891Z" transform="translate(-208.385 -107.73)" fill="#c5d9fe"/>
        <path id="Path_297" data-name="Path 297" d="M434.055,125.463l-15.028-8.682c-4.909-2.841-12.881-2.841-17.79,0l-15.028,8.682c-4.909,2.841-4.909,7.435,0,10.276l15.028,8.682c4.909,2.841,12.881,2.841,17.79,0l15.028-8.682C438.964,132.9,438.964,128.289,434.055,125.463Z" transform="translate(-166.44 -103.726)" fill="#c5d9fe"/>
      </g>
      <g id="Group_130" data-name="Group 130" transform="translate(239.876 70.479)">
        <g id="Group_127" data-name="Group 127">
          <g id="Group_126" data-name="Group 126" transform="translate(2.021 70.298)">
            <path id="Path_298" data-name="Path 298" d="M159.112,110.363,176.681,120.5c3.252,1.878,5.872-.111,5.872-4.436v-4.815c0-4.325-2.636-9.361-5.872-11.223L159.112,89.889c-3.252-1.878-5.872.11-5.872,4.436V99.14C153.24,103.465,155.86,108.485,159.112,110.363Z" transform="translate(-153.24 -89.181)" fill="url(#linear-gradient)"/>
            <path id="Path_299" data-name="Path 299" d="M220.963,125.589l-39.511-22.81c-3.252-1.878-5.872.111-5.872,4.436v4.815c0,4.325,2.636,9.361,5.872,11.223l39.511,22.81c3.252,1.878,5.872-.111,5.872-4.436v-4.815C226.835,132.5,224.215,127.468,220.963,125.589Z" transform="translate(-140.315 -81.724)" fill="url(#linear-gradient-2)"/>
            <path id="Path_300" data-name="Path 300" d="M153.24,110.337,239.76,160.3v-4.672L153.24,105.68Z" transform="translate(-153.24 -79.636)" fill="url(#linear-gradient-3)"/>
            <path id="Path_301" data-name="Path 301" d="M153.24,114.537l60.9,35.154v-4.657l-60.9-35.154Z" transform="translate(-153.24 -77.206)" fill="url(#linear-gradient-4)"/>
          </g>
          <path id="Path_302" data-name="Path 302" d="M237.028,151.645l-79.59-45.951c-3.015-1.736-5.478-6.456-5.478-10.482V49.45c0-4.025,2.463-5.888,5.478-4.152l79.59,45.951c3.015,1.736,5.478,6.456,5.478,10.482v45.762C242.521,151.518,240.059,153.381,237.028,151.645Z" transform="translate(-151.96 -44.648)" fill="url(#linear-gradient-5)"/>
        </g>
        <g id="Group_129" data-name="Group 129" transform="translate(432.253 249.363)">
          <g id="Group_128" data-name="Group 128" transform="translate(2.005 70.298)">
            <path id="Path_303" data-name="Path 303" d="M432.932,268.333,450.5,278.467c3.252,1.878,5.872-.11,5.872-4.436v-4.815c0-4.325-2.636-9.361-5.872-11.223l-17.569-10.134c-3.252-1.878-5.872.111-5.872,4.436v4.815C427.06,261.435,429.7,266.471,432.932,268.333Z" transform="translate(-427.06 -247.152)" fill="url(#linear-gradient-6)"/>
            <path id="Path_304" data-name="Path 304" d="M494.793,283.569l-39.511-22.81c-3.252-1.878-5.872.111-5.872,4.436v4.815c0,4.325,2.636,9.361,5.872,11.223l39.511,22.81c3.252,1.878,5.872-.111,5.872-4.436v-4.815C500.665,290.468,498.029,285.432,494.793,283.569Z" transform="translate(-414.13 -239.688)" fill="url(#linear-gradient-7)"/>
            <path id="Path_305" data-name="Path 305" d="M427.06,268.307,513.6,318.268v-4.657L427.06,263.65Z" transform="translate(-427.06 -237.606)" fill="url(#linear-gradient-8)"/>
            <path id="Path_306" data-name="Path 306" d="M427.06,272.507l60.9,35.154V303l-60.9-35.154Z" transform="translate(-427.06 -235.177)" fill="url(#linear-gradient-9)"/>
          </g>
          <path id="Path_307" data-name="Path 307" d="M510.858,309.615l-79.59-45.951c-3.015-1.736-5.478-6.456-5.478-10.482V207.42c0-4.025,2.463-5.888,5.478-4.152l79.59,45.951c3.015,1.736,5.478,6.456,5.478,10.482v45.762C516.335,309.489,513.873,311.351,510.858,309.615Z" transform="translate(-425.79 -202.618)" fill="url(#linear-gradient-10)"/>
        </g>
      </g>
    </g>
    <g id="Group_138" data-name="Group 138" clip-path="url(#clip-path)">
      <g id="Group_135" data-name="Group 135" transform="translate(72.775 192.76)">
        <g id="Group_132" data-name="Group 132">
          <path id="Path_308" data-name="Path 308" d="M607.113,340.626l31.082-17.948c9.866-5.7,9.866-14.933,0-20.632L352.983,137.373c-9.866-5.7-25.872-5.7-35.738,0l-31.081,17.948c-9.866,5.7-25.872,5.7-35.738,0l-50.1-28.935c-9.866-5.7-25.872-5.7-35.738,0L53.5,190.523c-9.866,5.7-9.866,14.933,0,20.632l50.1,28.935c9.866,5.7,9.866,14.933,0,20.632L61.016,285.314c-9.866,5.7-9.866,14.933,0,20.632L159.2,362.631c9.866,5.7,25.872,5.7,35.738,0l42.589-24.594c9.866-5.7,25.872-5.7,35.738,0L293.993,350c9.866,5.7,9.866,14.933,0,20.632L251.4,395.228c-9.866,5.7-9.866,14.933,0,20.632L346.211,470.6c9.866,5.7,25.872,5.7,35.738,0l42.589-24.594c9.866-5.7,25.872-5.7,35.738,0l50.1,28.935c9.866,5.7,25.872,5.7,35.738,0L657.2,410.808c9.866-5.7,9.866-14.933,0-20.632l-50.1-28.935C597.247,355.559,597.247,346.325,607.113,340.626Z" transform="translate(-46.102 -122.113)" fill="#eaf2fd"/>
          <path id="Path_309" data-name="Path 309" d="M404.212,290.868,442.555,313c-.016-.111-.063-.205-.079-.316v-68.9h0c-.679,3.11-3.047,6.125-7.182,8.508l-31.082,17.948C394.346,275.935,394.346,285.169,404.212,290.868Z" transform="translate(156.799 -51.722)" fill="url(#linear-gradient-11)"/>
          <path id="Path_311" data-name="Path 311" d="M53.684,267.053c-.442-4.041,1.973-8.177,7.324-11.255L103.6,231.2c9.866-5.7,9.866-14.933,0-20.632l-50.1-28.935c-4.136-2.384-6.519-5.4-7.182-8.508h0V535.737c-.931,4.31,1.452,8.824,7.182,12.123l.174.11V267.053Z" transform="translate(-46.095 -92.597)" fill="url(#linear-gradient-12)"/>
          <path id="Path_312" data-name="Path 312" d="M437.8,299.62h0c0,.016,0,.016-.016.032h.016Z" transform="translate(180.5 -19.417)" fill="url(#linear-gradient-13)"/>
          <path id="Path_313" data-name="Path 313" d="M296.17,324.639h3.157C298.269,324.607,297.212,324.607,296.17,324.639Z" transform="translate(98.573 -4.956)" fill="url(#linear-gradient-14)"/>
          <path id="Path_314" data-name="Path 314" d="M351.47,742.753c6.519.016,13.039-1.4,18.011-4.262l111.082-64.136c5.73-3.315,8.114-7.814,7.182-12.123V299.64h-.016c-.679,3.094-3.047,6.093-7.167,8.477L369.481,372.253c-4.972,2.873-11.492,4.294-18.011,4.278h0V742.753Z" transform="translate(130.566 -19.405)" fill="url(#linear-gradient-15)"/>
          <path id="Path_316" data-name="Path 316" d="M393.971,357.8l-50.1-28.935a35.56,35.56,0,0,0-16.291-4.23H324.42a35.56,35.56,0,0,0-16.291,4.23l-42.589,24.594c-5.02,2.9-11.618,4.309-18.2,4.262V723.954c6.583.047,13.181-1.373,18.2-4.262L308.13,695.1a35.559,35.559,0,0,1,16.291-4.23c6.977-.253,14.112,1.152,19.448,4.23l50.1,28.935c4.893,2.826,11.318,4.246,17.727,4.262V362.057h0C405.289,362.041,398.88,360.621,393.971,357.8Z" transform="translate(70.322 -4.947)" fill="url(#linear-gradient-16)"/>
          <path id="Path_317" data-name="Path 317" d="M245.906,272.437,225.18,260.472c-5.241-3.031-12.2-4.42-19.069-4.246a35.8,35.8,0,0,0-16.685,4.246l-42.589,24.594c-4.878,2.81-11.239,4.23-17.617,4.262V655.565h0c6.377-.032,12.739-1.452,17.617-4.262l42.589-24.594a29.826,29.826,0,0,1,6.488-2.7V328.428h.032c-.205-3.883,2.226-7.814,7.372-10.781l2.81-1.626,39.779-22.968C255.772,287.37,255.772,278.135,245.906,272.437Z" transform="translate(1.985 -44.531)" fill="url(#linear-gradient-17)"/>
          <path id="Path_318" data-name="Path 318" d="M273.683,366.564l-92.74-53.544-2.068-1.2c-4.736-2.731-7.167-6.283-7.372-9.85h-.032V597.552c.032-.016.063-.016.095-.032l.016,14.049.079,54.381c-.931,4.309,1.452,8.824,7.182,12.123l94.807,54.744c4.846,2.794,11.192,4.215,17.538,4.262V370.826C284.875,370.779,278.545,369.358,273.683,366.564Zm-50.419,4.246h0c0-.016.016-.016,0,0Z" transform="translate(26.426 -18.057)" fill="url(#linear-gradient-18)"/>
          <path id="Path_319" data-name="Path 319" d="M174.547,302.964C168,303,161.43,301.591,156.426,298.7L58.24,242.017c-4.515-2.6-6.946-5.967-7.324-9.377H50.9V513.558l.016.016.142,82.542a7.6,7.6,0,0,0-.158,1.342v.758c.11,3.631,2.526,7.261,7.34,10.024l98.185,56.686c5,2.889,11.571,4.31,18.122,4.262h0ZM105.06,463.944a5.99,5.99,0,0,1,0-1.594Z" transform="translate(-43.327 -58.167)" fill="url(#linear-gradient-19)"/>
        </g>
        <g id="Group_134" data-name="Group 134" transform="translate(15.213 12.846)">
          <path id="Path_320" data-name="Path 320" d="M522.689,461.665c-4.4,0-8.682-.947-11.444-2.557l-50.1-28.935c-6.693-3.867-15.328-6-24.294-6s-17.6,2.131-24.294,6l-42.589,24.594c-2.762,1.594-7.04,2.557-11.444,2.557s-8.682-.947-11.444-2.557l-93.418-53.939,41.184-23.773c8.793-5.067,13.828-12.9,13.828-21.452s-5.036-16.37-13.828-21.437L274.116,322.2c-6.693-3.867-15.328-6-24.294-6s-17.6,2.131-24.294,6l-42.589,24.594c-2.762,1.594-7.04,2.557-11.444,2.557s-8.682-.947-11.444-2.557L63.27,290.914l41.184-23.773c8.792-5.067,13.828-12.9,13.828-21.452s-5.036-16.37-13.828-21.452L55.74,196.123l.584-.331,109.093-62.984c2.762-1.594,7.04-2.557,11.444-2.557s8.682.947,11.444,2.557l50.1,28.935c6.693,3.867,15.328,6,24.294,6s17.6-2.131,24.294-6l31.082-17.948c2.762-1.594,7.04-2.557,11.444-2.557s8.682.947,11.444,2.557L624.774,307.647,595.1,324.774c-8.793,5.083-13.828,12.9-13.828,21.452S586.3,362.6,595.1,367.663l48.714,28.13-.584.331L534.134,459.108C531.371,460.718,527.093,461.665,522.689,461.665Zm-85.841-38.248c9.108,0,17.869,2.163,24.688,6.093l50.1,28.935c2.652,1.531,6.788,2.447,11.066,2.447,4.262,0,8.4-.916,11.05-2.447l108.509-62.652-47.546-27.451c-9.029-5.209-14.223-13.276-14.223-22.115s5.178-16.906,14.223-22.115l28.509-16.448L340.588,144.473c-2.652-1.531-6.788-2.447-11.066-2.447-4.262,0-8.4.916-11.05,2.447l-31.082,17.948c-6.819,3.931-15.58,6.093-24.688,6.093s-17.869-2.163-24.688-6.093l-50.1-28.935c-2.652-1.531-6.788-2.447-11.05-2.447s-8.4.916-11.05,2.447L57.3,196.138l47.546,27.451c9.029,5.209,14.223,13.276,14.223,22.115s-5.178,16.906-14.223,22.115L64.832,290.93l95.612,55.2c2.652,1.531,6.788,2.447,11.066,2.447,4.262,0,8.4-.916,11.05-2.447l42.589-24.594c6.819-3.931,15.58-6.093,24.688-6.093s17.869,2.163,24.688,6.093L295.253,333.5c9.029,5.209,14.223,13.276,14.223,22.115s-5.178,16.906-14.223,22.115l-40.016,23.11,92.25,53.26c2.652,1.531,6.788,2.447,11.05,2.447s8.4-.916,11.05-2.447l42.589-24.594C418.979,425.58,427.74,423.417,436.848,423.417Z" transform="translate(-55.74 -130.25)" fill="#83e8fe"/>
          <path id="Path_321" data-name="Path 321" d="M367.325,360.643a13.187,13.187,0,0,1-6.425-1.594l-36.4-21.01c-1.831-1.058-2.889-2.494-2.889-3.946a3.636,3.636,0,0,1,2.1-3.094l86.11-49.708c2.92-1.689,8.051-1.484,11.413.458l36.4,21.01c1.831,1.058,2.889,2.494,2.889,3.946a3.636,3.636,0,0,1-2.1,3.094l-86.11,49.708A10.17,10.17,0,0,1,367.325,360.643Zm47.467-79.732a9.362,9.362,0,0,0-4.594,1.058l-86.11,49.708a2.908,2.908,0,0,0-1.7,2.431c0,1.152.916,2.352,2.494,3.268l36.4,21.01c3.157,1.815,7.924,2.021,10.624.458l86.11-49.708a2.908,2.908,0,0,0,1.7-2.431c0-1.152-.916-2.352-2.494-3.268l-36.4-21.01A12.218,12.218,0,0,0,414.792,280.91Z" transform="translate(98.078 -43.529)" fill="#83e8fe"/>
          <path id="Path_322" data-name="Path 322" d="M120.215,218.5a13.187,13.187,0,0,1-6.425-1.594l-36.4-21.01c-1.831-1.058-2.889-2.494-2.889-3.931a3.637,3.637,0,0,1,2.1-3.094l86.11-49.708c2.92-1.689,8.051-1.484,11.413.458l36.4,21.01c1.831,1.058,2.889,2.494,2.889,3.931a3.636,3.636,0,0,1-2.1,3.094L125.2,217.36A10.346,10.346,0,0,1,120.215,218.5Zm47.451-79.748a9.362,9.362,0,0,0-4.594,1.058l-86.11,49.708a2.908,2.908,0,0,0-1.7,2.431c0,1.152.916,2.352,2.494,3.268l36.4,21.01c3.157,1.815,7.924,2.021,10.624.458l86.11-49.708a2.908,2.908,0,0,0,1.7-2.431c0-1.152-.916-2.352-2.494-3.268l-36.4-21.01A12.345,12.345,0,0,0,167.666,138.749Z" transform="translate(-44.886 -125.758)" fill="#83e8fe"/>
          <g id="Group_133" data-name="Group 133" transform="translate(266.127 25.257)">
            <path id="Path_323" data-name="Path 323" d="M236.706,160.552,224.33,153.4l12.376-7.151,12.376,7.151ZM225.893,153.4l10.829,6.251L247.55,153.4l-10.829-6.251Z" transform="translate(-224.33 -146.25)" fill="#83e8fe"/>
            <path id="Path_324" data-name="Path 324" d="M256.276,171.852,243.9,164.7l12.376-7.151,12.376,7.151ZM245.463,164.7l10.829,6.251L267.12,164.7l-10.829-6.251Z" transform="translate(-213.008 -139.712)" fill="#83e8fe"/>
            <path id="Path_325" data-name="Path 325" d="M275.852,183.152,263.46,176l12.392-7.151L288.227,176ZM265.039,176l10.829,6.251L286.7,176l-10.829-6.251Z" transform="translate(-201.692 -133.175)" fill="#83e8fe"/>
            <path id="Path_326" data-name="Path 326" d="M295.422,194.452,283.03,187.3l12.392-7.151L307.8,187.3ZM284.609,187.3l10.829,6.251,10.829-6.251-10.829-6.251Z" transform="translate(-190.369 -126.637)" fill="#83e8fe"/>
            <path id="Path_327" data-name="Path 327" d="M314.986,205.742l-12.376-7.151,12.376-7.151,12.392,7.151Zm-10.813-7.135L315,204.858l10.829-6.251L315,192.356Z" transform="translate(-179.042 -120.106)" fill="#83e8fe"/>
            <path id="Path_328" data-name="Path 328" d="M334.556,217.042l-12.376-7.151,12.376-7.151,12.376,7.151Zm-10.813-7.151,10.829,6.251,10.829-6.251-10.829-6.251Z" transform="translate(-167.719 -113.568)" fill="#83e8fe"/>
            <path id="Path_329" data-name="Path 329" d="M354.126,228.342l-12.376-7.151,12.376-7.151,12.392,7.151ZM343.3,221.191l10.829,6.251,10.829-6.251-10.829-6.251Z" transform="translate(-156.397 -107.031)" fill="#83e8fe"/>
            <path id="Path_330" data-name="Path 330" d="M373.7,239.642l-12.376-7.151L373.7,225.34l12.392,7.151Zm-10.829-7.151,10.829,6.251,10.829-6.251L373.7,226.24Z" transform="translate(-145.075 -100.493)" fill="#83e8fe"/>
            <path id="Path_331" data-name="Path 331" d="M393.266,250.942l-12.376-7.151,12.376-7.151,12.376,7.151Zm-10.829-7.151,10.829,6.251,10.829-6.251-10.829-6.251Z" transform="translate(-133.753 -93.955)" fill="#83e8fe"/>
          </g>
          <path id="Path_332" data-name="Path 332" d="M280.745,303.822a7.3,7.3,0,0,1-3.646-.979L193.246,254.43a7.317,7.317,0,0,1,0-12.66L277.1,193.356a7.363,7.363,0,0,1,7.309,0L368.26,241.77a7.317,7.317,0,0,1,0,12.66l-83.852,48.414A7.4,7.4,0,0,1,280.745,303.822Zm-3.268-1.658a6.54,6.54,0,0,0,6.519,0l83.852-48.414a6.521,6.521,0,0,0,0-11.3L284,194.035a6.5,6.5,0,0,0-6.519,0l-83.852,48.414a6.521,6.521,0,0,0,0,11.3Z" transform="translate(21.704 -94.302)" fill="#83e8fe"/>
        </g>
      </g>
      <g id="Group_137" data-name="Group 137" transform="translate(579.468 514.211)">
        <path id="Path_333" data-name="Path 333" d="M454.525,352.674,370.31,401.293v-9.124l84.215-48.619Z" transform="translate(-365.227 -315.452)" fill="url(#linear-gradient-20)"/>
        <path id="Path_334" data-name="Path 334" d="M454.525,367.434,370.31,416.053v-9.124l84.215-48.619Z" transform="translate(-365.227 -306.913)" fill="url(#linear-gradient-21)"/>
        <g id="Group_136" data-name="Group 136">
          <path id="Path_335" data-name="Path 335" d="M375.188,366.671l-8.1,4.673v-9.361l8.1-4.672Z" transform="translate(-367.09 -307.491)" fill="url(#linear-gradient-22)"/>
          <path id="Path_336" data-name="Path 336" d="M388.864,358.781l-8.114,4.672v-9.361l8.114-4.672Z" transform="translate(-359.187 -312.056)" fill="url(#linear-gradient-23)"/>
          <path id="Path_337" data-name="Path 337" d="M402.518,350.891l-8.1,4.673V346.2l8.1-4.672Z" transform="translate(-351.278 -316.621)" fill="url(#linear-gradient-24)"/>
          <path id="Path_338" data-name="Path 338" d="M416.188,343l-8.1,4.672v-9.361l8.1-4.672Z" transform="translate(-343.37 -321.185)" fill="url(#linear-gradient-25)"/>
          <path id="Path_339" data-name="Path 339" d="M429.864,335.111l-8.114,4.672v-9.361l8.114-4.672Z" transform="translate(-335.467 -325.75)" fill="url(#linear-gradient-26)"/>
        </g>
      </g>
    </g>
    <g id="Group_145" data-name="Group 145" clip-path="url(#clip-path)">
      <g id="Group_141" data-name="Group 141" transform="translate(131.587 41.311)">
        <circle id="Ellipse_1" data-name="Ellipse 1" cx="23.22" cy="23.22" r="23.22" transform="translate(29.708 46.504)" fill="url(#radial-gradient)"/>
        <g id="Group_140" data-name="Group 140">
          <g id="Group_139" data-name="Group 139" transform="translate(0 132.519)">
            <path id="Path_340" data-name="Path 340" d="M83.36,154.635l77.1-44.515L192.2,128.447l-77.1,44.515Z" transform="translate(-83.36 -110.12)" fill="#fff" fill-rule="evenodd"/>
            <path id="Path_341" data-name="Path 341" d="M180.566,121.73v53.813l-77.1,44.468V166.245Z" transform="translate(-71.725 -103.403)" fill-rule="evenodd" fill="url(#linear-gradient-27)"/>
            <path id="Path_342" data-name="Path 342" d="M83.36,138.32,115.1,156.647v53.765L83.36,192.133Z" transform="translate(-83.36 -93.805)" fill="#c1cdf8" fill-rule="evenodd"/>
          </g>
          <path id="Path_343" data-name="Path 343" d="M93.23,202.209l17.443,10.071,57.238-33.055V36.241L150.468,26.17,93.23,59.225Z" transform="translate(-77.65 -26.17)" fill-rule="evenodd" fill="url(#linear-gradient-28)"/>
        </g>
      </g>
      <g id="Group_144" data-name="Group 144" transform="translate(521.661 264.359)">
        <circle id="Ellipse_2" data-name="Ellipse 2" cx="23.22" cy="23.22" r="23.22" transform="translate(29.266 42.052)" fill="url(#radial-gradient-2)"/>
        <g id="Group_143" data-name="Group 143">
          <g id="Group_142" data-name="Group 142" transform="translate(0 133.845)">
            <path id="Path_344" data-name="Path 344" d="M330.48,296.775l77.1-44.515,31.745,18.327-77.1,44.515Z" transform="translate(-330.464 -252.26)" fill="#fff" fill-rule="evenodd"/>
            <path id="Path_345" data-name="Path 345" d="M427.692,263.87v53.813L350.58,362.15V308.385Z" transform="translate(-318.836 -245.543)" fill-rule="evenodd" fill="url(#linear-gradient-29)"/>
            <path id="Path_346" data-name="Path 346" d="M330.47,280.46l31.745,18.327v53.765l-31.745-18.28Z" transform="translate(-330.47 -235.945)" fill="#c1cdf8" fill-rule="evenodd"/>
          </g>
          <path id="Path_347" data-name="Path 347" d="M340.06,343.509,357.5,353.58l57.254-33.055V177.541L397.314,167.47,340.06,200.525Z" transform="translate(-324.922 -167.47)" fill-rule="evenodd" fill="url(#linear-gradient-30)"/>
        </g>
      </g>
    </g>
    <g id="Group_155" data-name="Group 155" clip-path="url(#clip-path)">
      <g id="Group_146" data-name="Group 146" transform="translate(433.936 240.722)">
        <path id="Path_348" data-name="Path 348" d="M278.3,196.591h0a3.808,3.808,0,0,0,4.183-3.378l3.946-36.512a3.808,3.808,0,0,0-3.378-4.183h0a3.808,3.808,0,0,0-4.183,3.378l-3.946,36.512A3.828,3.828,0,0,0,278.3,196.591Z" transform="translate(-274.897 -152.496)" fill="#dfaa86"/>
      </g>
      <g id="Group_149" data-name="Group 149" transform="translate(442.504 294.698)">
        <g id="Group_148" data-name="Group 148" transform="translate(0 33.263)">
          <g id="Group_147" data-name="Group 147">
            <path id="Path_349" data-name="Path 349" d="M297.231,214.752c.047.505-.363.947-1.026,1.373-.189.126.032-2.731-.631-2.257-.189.142-9.361,7.277-14.475,5.951a1.073,1.073,0,0,1-.758-1.1v-1.152c-.063-1.294,1.863-3.283,4.8-6.141,3.236-3.141,5.288-5.114,10.118-2.32,1.373.789,1.942,1.389,1.942,1.894Z" transform="translate(-280.316 -207.762)" fill="#080c01"/>
            <path id="Path_350" data-name="Path 350" d="M285.116,211.431c-3.9,3.8-6.03,6.046-4.025,7.214,2,1.152,6.014-.584,10.118-3.694,3.6-2.715,8.856-3.062,4.025-5.841C290.4,206.316,288.352,208.29,285.116,211.431Z" transform="translate(-280.324 -207.756)" fill="#39355f"/>
          </g>
        </g>
        <path id="Path_351" data-name="Path 351" d="M285.85,221.813l.284-35.123,9.708,3.141-.095,6.346a42.255,42.255,0,0,1-1.468,15.391s-1.657,3.378-1.326,11.255C292.953,222.823,288.691,225.238,285.85,221.813Z" transform="translate(-277.127 -186.69)" fill="#dfaa86"/>
      </g>
      <g id="Group_152" data-name="Group 152" transform="translate(431.297 285.495)">
        <g id="Group_151" data-name="Group 151" transform="translate(0 33.263)">
          <g id="Group_150" data-name="Group 150">
            <path id="Path_352" data-name="Path 352" d="M290.131,208.922c.047.505-.363.947-1.026,1.373-.189.126.032-2.731-.631-2.257-.189.142-9.361,7.277-14.475,5.951a1.073,1.073,0,0,1-.758-1.1v-1.152c-.079-1.294,1.863-3.283,4.8-6.141,3.236-3.141,5.288-5.115,10.118-2.32,1.373.789,1.942,1.389,1.942,1.91Z" transform="translate(-273.216 -201.932)" fill="#080c01"/>
            <path id="Path_353" data-name="Path 353" d="M278.016,205.6c-3.9,3.8-6.03,6.046-4.025,7.214,2,1.152,6.014-.584,10.118-3.694,3.6-2.715,8.856-3.062,4.025-5.841C283.3,200.488,281.252,202.445,278.016,205.6Z" transform="translate(-273.224 -201.928)" fill="#39355f"/>
          </g>
        </g>
        <path id="Path_354" data-name="Path 354" d="M278.75,215.983l.284-35.123,11.618,3.757-1.989,5.73a42.255,42.255,0,0,1-1.468,15.391s-1.657,3.378-1.326,11.255C285.853,216.977,281.591,219.408,278.75,215.983Z" transform="translate(-270.028 -180.86)" fill="#dfaa86"/>
      </g>
      <path id="Path_355" data-name="Path 355" d="M306.787,186.089v12.976s-15.2,5.13-29.487-12.976V173.54Z" transform="translate(160.43 100.401)" fill="#7400ba"/>
      <path id="Path_356" data-name="Path 356" d="M299.695,204.161a1,1,0,0,1-.489.158c-2.541.205-11.713-1.8-20.868-12.123a4.789,4.789,0,0,1-1.247-2.968v-29.3c0-2.21.789-3.757,2.052-4.467l6.882-4.025c1.247-.742,3-.663,4.909.442l9.392,5.43a15.316,15.316,0,0,1,6.9,11.95v29.471a1.51,1.51,0,0,1-.663,1.4Z" transform="translate(160.309 87.333)" fill="#ffffeb"/>
      <g id="Group_153" data-name="Group 153" transform="translate(460.509 249.915)">
        <path id="Path_357" data-name="Path 357" d="M295.534,202.567h0a3.806,3.806,0,0,0,3.8-3.8V162.124a3.806,3.806,0,0,0-3.8-3.8h0a3.806,3.806,0,0,0-3.8,3.8v36.638A3.817,3.817,0,0,0,295.534,202.567Z" transform="translate(-291.73 -158.32)" fill="#dfaa86"/>
      </g>
      <path id="Path_358" data-name="Path 358" d="M293.278,159.507a2.414,2.414,0,0,1-1.421,2.021,7.623,7.623,0,0,1-6.867,0,2.4,2.4,0,0,1-1.421-2.021V153.13a2.415,2.415,0,0,1,1.421-2.021,7.624,7.624,0,0,1,6.867,0,2.4,2.4,0,0,1,1.421,2.021Z" transform="translate(164.058 86.951)" fill="#cd8b68"/>
      <g id="Group_154" data-name="Group 154" transform="translate(435.261 213.517)">
        <path id="Path_359" data-name="Path 359" d="M280.6,145.5l-4.8,18.643a2.179,2.179,0,0,0,2.936,2.557l11.05-4.594a2.162,2.162,0,0,0,1.294-2.431l-3.615-18.343a2.178,2.178,0,0,0-3.994-.71l-2.636,4.294A2.386,2.386,0,0,0,280.6,145.5Z" transform="translate(-275.735 -132.764)" fill="#813db6"/>
        <path id="Path_360" data-name="Path 360" d="M289.47,152.112c0,1.594,1.121,2.242,2.494,1.436a5.5,5.5,0,0,0,2.494-4.325c0-1.594-1.121-2.242-2.494-1.436A5.518,5.518,0,0,0,289.47,152.112Z" transform="translate(-267.789 -128.216)" fill="#e6a984"/>
        <circle id="Ellipse_3" data-name="Ellipse 3" cx="13.37" cy="13.37" r="13.37" transform="translate(1.027 6.64) rotate(-14.377)" fill="#dfaa86"/>
        <path id="Path_361" data-name="Path 361" d="M304.854,153.065s-11.3,6.2-16.811-9.929c0,0-2.952,6.8-10.292,5.3,0,0,0-10.608,10.939-12.66C288.689,135.78,308.042,133.838,304.854,153.065Z" transform="translate(-274.57 -134.994)" fill="#813db6"/>
        <path id="Path_362" data-name="Path 362" d="M292.765,149.209l-4.8,18.643a2.179,2.179,0,0,0,2.936,2.557l11.05-4.594a2.162,2.162,0,0,0,1.294-2.431l-3.615-18.343a2.178,2.178,0,0,0-3.994-.71L293,148.625A2.385,2.385,0,0,0,292.765,149.209Z" transform="translate(-268.7 -130.617)" fill="#813db6"/>
      </g>
    </g>
    <g id="Group_167" data-name="Group 167" clip-path="url(#clip-path)">
      <g id="Group_157" data-name="Group 157" transform="translate(269.415 283.32)">
        <path id="Path_363" data-name="Path 363" d="M254.331,201.042l-46.062,26.6c-3.362,1.942-9.282,1.689-13.165-.553L173.888,214.98c-3.883-2.242-4.309-5.651-.947-7.593L219,180.789c3.362-1.942,9.282-1.689,13.165.553l21.216,12.107C257.267,195.69,257.693,199.1,254.331,201.042Z" transform="translate(-170.673 -179.482)" fill="url(#linear-gradient-31)"/>
        <g id="Group_156" data-name="Group 156" transform="translate(0.01 18.876)">
          <path id="Path_364" data-name="Path 364" d="M244.991,199.7V191.44h0a4.145,4.145,0,0,1-2.21,2.684l-46.062,26.6a12.008,12.008,0,0,1-6.109,1.294v9.44a11.848,11.848,0,0,0,6.109-1.294l46.062-26.6C244.549,202.553,245.259,201.132,244.991,199.7Z" transform="translate(-159.149 -191.44)" fill="url(#linear-gradient-32)"/>
          <path id="Path_365" data-name="Path 365" d="M195.1,215.443l-21.216-12.107a5.853,5.853,0,0,1-3.141-3.725v8.256c-.347,1.673.726,3.52,3.141,4.909L195.1,224.882a15.172,15.172,0,0,0,7.056,1.831v-9.44A14.936,14.936,0,0,1,195.1,215.443Z" transform="translate(-170.68 -186.713)" fill="url(#linear-gradient-33)"/>
          <path id="Path_366" data-name="Path 366" d="M195.1,215.443l-21.216-12.107a5.853,5.853,0,0,1-3.141-3.725v8.256c-.347,1.673.726,3.52,3.141,4.909L195.1,224.882a15.172,15.172,0,0,0,7.056,1.831v-9.44A14.936,14.936,0,0,1,195.1,215.443Z" transform="translate(-170.68 -186.713)" fill="#c1cdf8"/>
        </g>
      </g>
      <g id="Group_164" data-name="Group 164" transform="translate(306.537 101.879)">
        <g id="Group_160" data-name="Group 160">
          <g id="Group_158" data-name="Group 158" transform="translate(4.957 237.034)">
            <path id="Path_367" data-name="Path 367" d="M276.273,260.273,197.33,214.7v20.505l78.943,45.573,78.943-45.573V214.7Z" transform="translate(-197.33 -214.7)" fill="#83e8fe" fill-rule="evenodd"/>
          </g>
          <path id="Path_368" data-name="Path 368" d="M278.09,268.835l-83.9-48.43,83.9-48.446,83.9,48.446Z" transform="translate(-194.19 -2.393)" fill="#fff" fill-rule="evenodd"/>
          <path id="Path_369" data-name="Path 369" d="M268.277,187.922l51.776,29.9,5.351-3.078L268.277,181.75,211.15,214.742l5.335,3.078Z" transform="translate(-184.378 3.271)" fill="#c1cdf8" fill-rule="evenodd"/>
          <path id="Path_370" data-name="Path 370" d="M266.322,185.66l-51.792,29.9,51.792,29.9,51.776-29.9Z" transform="translate(-182.422 5.533)" fill-rule="evenodd" fill="url(#linear-gradient-34)"/>
          <path id="Path_371" data-name="Path 371" d="M261.514,191.86,222.84,214.181,261.514,236.5l38.659-22.321Z" transform="translate(-177.615 9.12)" fill="#c1cdf8" fill-rule="evenodd"/>
          <path id="Path_372" data-name="Path 372" d="M261.514,188.51,222.84,210.831l38.674,22.321,38.659-22.321Z" transform="translate(-177.615 7.182)" fill="#fff" fill-rule="evenodd"/>
          <path id="Path_373" data-name="Path 373" d="M278.09,251.08l-83.9-48.43V218.8l83.9,48.446,83.9-48.446V202.65Z" transform="translate(-194.19 15.363)" fill-rule="evenodd" fill="url(#linear-gradient-35)"/>
          <g id="Group_159" data-name="Group 159" transform="translate(60.395 36.575)">
            <path id="Path_374" data-name="Path 374" d="M255.036,247.91H255c-5.367-.016-10.45-2.762-14.3-7.751l-.126-.174c-4.988-6.472-4.972-17.364.047-23.8l12.66-16.227-16.543-21.516c-2.889-3.773-2.652-10.024.521-13.386L252.747,148.6l-14.4-15.3a10.282,10.282,0,0,1-2.526-7.545,9.8,9.8,0,0,1,3.015-6.93l13.749-12.155L236.915,93.812a1.412,1.412,0,0,1,1.815-2.163L254.736,104.8l16.5-14.349a1.409,1.409,0,0,1,1.863,2.115L256.93,106.63l13.907,11.634a9.674,9.674,0,0,1,3.157,6.882,10.4,10.4,0,0,1-2.526,7.7L256.631,148.6l16.054,17.048c3.189,3.394,3.41,9.661.474,13.433l-16.291,20.9,12.486,16.243c5.02,6.519,4.988,17.506-.047,23.994C265.455,245.179,260.387,247.91,255.036,247.91Zm.032-45.636-12.2,15.659c-4.278,5.493-4.309,14.807-.047,20.332l.126.174c3.3,4.278,7.593,6.646,12.06,6.646h.016c4.467,0,8.729-2.336,12.044-6.6,4.309-5.556,4.325-14.965.032-20.537Zm-.379-51.618-15.375,16.338c-2.21,2.352-2.368,7.072-.332,9.724l16.1,20.947,15.849-20.316c2.068-2.652,1.91-7.388-.316-9.755Zm.095-42.147-14.065,12.439a7.069,7.069,0,0,0-2.068,4.925,7.559,7.559,0,0,0,1.768,5.478L254.7,146.52l14.712-15.628a7.55,7.55,0,0,0,1.752-5.6,6.882,6.882,0,0,0-2.147-4.878Z" transform="translate(-231.137 -86.33)" fill="url(#linear-gradient-36)"/>
            <path id="Path_375" data-name="Path 375" d="M243.509,114.714a5.114,5.114,0,1,1-5.114-5.114A5.113,5.113,0,0,1,243.509,114.714Z" transform="translate(-231.97 -75.046)" fill="#83e8fe"/>
            <path id="Path_376" data-name="Path 376" d="M265.579,114.714a5.114,5.114,0,1,1-5.114-5.114A5.113,5.113,0,0,1,265.579,114.714Z" transform="translate(-219.201 -75.046)" fill="#83e8fe"/>
            <circle id="Ellipse_4" data-name="Ellipse 4" cx="5.114" cy="5.114" r="5.114" transform="translate(0 81.074)" fill="#83e8fe"/>
            <path id="Path_377" data-name="Path 377" d="M266.289,144.184a5.114,5.114,0,1,1-5.114-5.114A5.113,5.113,0,0,1,266.289,144.184Z" transform="translate(-218.791 -57.996)" fill="#83e8fe"/>
            <path id="Path_378" data-name="Path 378" d="M254.539,161.134a5.115,5.115,0,1,1-5.115-5.115A5.113,5.113,0,0,1,254.539,161.134Z" transform="translate(-225.588 -48.19)" fill="#83e8fe"/>
            <path id="Path_379" data-name="Path 379" d="M254.219,129.414A5.115,5.115,0,1,1,249.1,124.3,5.113,5.113,0,0,1,254.219,129.414Z" transform="translate(-225.774 -66.541)" fill="#83e8fe"/>
            <path id="Path_380" data-name="Path 380" d="M254.539,102.324a5.115,5.115,0,1,1-5.115-5.114A5.113,5.113,0,0,1,254.539,102.324Z" transform="translate(-225.588 -82.214)" fill="#83e8fe"/>
            <path id="Path_381" data-name="Path 381" d="M265.579,92.824a5.114,5.114,0,1,1-5.114-5.114A5.113,5.113,0,0,1,265.579,92.824Z" transform="translate(-219.201 -87.71)" fill="#83e8fe"/>
            <circle id="Ellipse_5" data-name="Ellipse 5" cx="5.114" cy="5.114" r="5.114" transform="translate(0 2.384)" fill="#83e8fe"/>
          </g>
          <path id="Path_382" data-name="Path 382" d="M230.72,282.048l26.235,15.138,26.235-15.138V79.678L256.955,64.54,230.72,79.678Z" transform="translate(-173.056 -64.54)" fill-rule="evenodd" fill="url(#linear-gradient-37)"/>
        </g>
        <g id="Group_163" data-name="Group 163" transform="translate(28.438 185.803)">
          <g id="Group_161" data-name="Group 161" transform="translate(70.45 41.011)">
            <path id="Path_383" data-name="Path 383" d="M293.212,276.2a.486.486,0,0,1-.205-.047L270.4,262.8a.371.371,0,0,1-.189-.331V226.033l-13.181-7.624a.393.393,0,1,1,.395-.679l13.37,7.735a.371.371,0,0,1,.189.332v36.449L293.4,275.489a.389.389,0,0,1,.142.537A.461.461,0,0,1,293.212,276.2Z" transform="translate(-256.836 -202.758)" fill="#4981fb"/>
            <path id="Path_384" data-name="Path 384" d="M298.533,272.979a.486.486,0,0,1-.205-.047l-22.6-13.354a.406.406,0,0,1-.189-.332V222.813L262.542,215.3a.393.393,0,0,1,.395-.679l13.2,7.624a.371.371,0,0,1,.189.332v36.449l22.415,13.244a.389.389,0,0,1,.142.537A.419.419,0,0,1,298.533,272.979Z" transform="translate(-253.648 -204.558)" fill="#4981fb"/>
            <path id="Path_385" data-name="Path 385" d="M303.944,269.81a.486.486,0,0,1-.205-.047l-22.6-13.354a.371.371,0,0,1-.189-.332V219.628l-13.023-7.53a.393.393,0,1,1,.395-.679l13.212,7.64a.371.371,0,0,1,.189.332V255.84l22.415,13.228a.389.389,0,0,1,.142.537A.342.342,0,0,1,303.944,269.81Z" transform="translate(-250.535 -206.409)" fill="#4981fb"/>
            <path id="Path_386" data-name="Path 386" d="M309.31,266.607a.486.486,0,0,1-.205-.047l-22.6-13.354a.371.371,0,0,1-.189-.332V216.441l-12.928-7.482a.393.393,0,1,1,.395-.679l13.118,7.593a.371.371,0,0,1,.189.331v36.449L309.5,265.9a.389.389,0,0,1,.142.537A.372.372,0,0,1,309.31,266.607Z" transform="translate(-247.376 -208.226)" fill="#4981fb"/>
          </g>
          <g id="Group_162" data-name="Group 162">
            <path id="Path_387" data-name="Path 387" d="M225.962,200.417a.375.375,0,0,1-.189-.047l-13.37-7.861a.393.393,0,0,1,.395-.679l13.37,7.861a.389.389,0,0,1,.142.537A.436.436,0,0,1,225.962,200.417Z" transform="translate(-212.206 -176.732)" fill="#4981fb"/>
            <path id="Path_388" data-name="Path 388" d="M231.446,197.295a.375.375,0,0,1-.189-.047l-13.465-7.909a.393.393,0,1,1,.395-.679l13.465,7.908a.389.389,0,0,1,.142.537A.485.485,0,0,1,231.446,197.295Z" transform="translate(-209.087 -178.566)" fill="#4981fb"/>
            <path id="Path_389" data-name="Path 389" d="M236.925,194.162a.375.375,0,0,1-.189-.047l-13.544-7.956a.393.393,0,0,1,.395-.679l13.544,7.956a.389.389,0,0,1,.142.537A.436.436,0,0,1,236.925,194.162Z" transform="translate(-205.963 -180.406)" fill="#4981fb"/>
            <path id="Path_390" data-name="Path 390" d="M242.4,191.029a.375.375,0,0,1-.189-.047l-13.623-8a.393.393,0,0,1,.395-.679l13.623,8a.389.389,0,0,1,.142.537A.415.415,0,0,1,242.4,191.029Z" transform="translate(-202.839 -182.246)" fill="#4981fb"/>
          </g>
        </g>
      </g>
      <g id="Group_166" data-name="Group 166" transform="translate(424.397 372.287)">
        <path id="Path_391" data-name="Path 391" d="M352.511,257.4,306.449,284c-3.362,1.942-9.282,1.689-13.165-.552L272.068,271.34c-3.883-2.242-4.309-5.651-.947-7.593l46.062-26.6c3.362-1.942,9.282-1.689,13.165.552l21.216,12.107C355.447,252.05,355.873,255.46,352.511,257.4Z" transform="translate(-268.853 -235.842)" fill="#fff"/>
        <g id="Group_165" data-name="Group 165" transform="translate(0.01 18.876)">
          <path id="Path_392" data-name="Path 392" d="M343.181,256.056V247.8h0a4.145,4.145,0,0,1-2.21,2.684l-46.062,26.6a12.008,12.008,0,0,1-6.109,1.294v9.44a11.847,11.847,0,0,0,6.109-1.294l46.062-26.6C342.723,258.913,343.433,257.492,343.181,256.056Z" transform="translate(-257.323 -247.8)" fill="url(#linear-gradient-38)"/>
          <path id="Path_393" data-name="Path 393" d="M293.28,271.813l-21.216-12.107a5.853,5.853,0,0,1-3.141-3.725v8.256c-.347,1.673.726,3.52,3.141,4.909l21.216,12.107a15.159,15.159,0,0,0,7.04,1.831v-9.44A15.351,15.351,0,0,1,293.28,271.813Z" transform="translate(-268.86 -243.068)" fill="url(#linear-gradient-39)"/>
          <path id="Path_394" data-name="Path 394" d="M293.28,271.813l-21.216-12.107a5.853,5.853,0,0,1-3.141-3.725v8.256c-.347,1.673.726,3.52,3.141,4.909l21.216,12.107a15.159,15.159,0,0,0,7.04,1.831v-9.44A15.351,15.351,0,0,1,293.28,271.813Z" transform="translate(-268.86 -243.068)" fill="#c1cdf8"/>
        </g>
      </g>
    </g>
    <g id="Group_176" data-name="Group 176" clip-path="url(#clip-path)">
      <g id="Group_171" data-name="Group 171" transform="translate(131.13 288.4)">
        <g id="Group_169" data-name="Group 169" transform="translate(0 3.994)">
          <g id="Group_168" data-name="Group 168">
            <path id="Path_395" data-name="Path 395" d="M181.382,223.336l-32.3,18.643L83.07,203.873l32.3-18.643Z" transform="translate(-83.07 -185.23)" fill="#fff"/>
            <path id="Path_396" data-name="Path 396" d="M157.187,209.37v58.643l-32.3,18.643V228.013Z" transform="translate(-58.875 -171.264)" fill="url(#linear-gradient-40)"/>
            <path id="Path_397" data-name="Path 397" d="M83.07,197.04v58.643l66.015,38.106V235.146Z" transform="translate(-83.07 -178.397)" fill="#c1cdf8"/>
          </g>
        </g>
        <g id="Group_170" data-name="Group 170" transform="translate(19.321)">
          <path id="Path_398" data-name="Path 398" d="M98.4,207.256l31,17.838,23.773-12.96L121.447,193.98Z" transform="translate(-93.522 -176.174)" fill="url(#linear-gradient-41)"/>
          <path id="Path_399" data-name="Path 399" d="M100.188,213.782,95.31,182.7l34.412,19.842,1.468,29.077Z" transform="translate(-95.31 -182.7)" fill="#c1cdf8"/>
        </g>
      </g>
      <g id="Group_175" data-name="Group 175" transform="translate(317.256 397.272)">
        <g id="Group_173" data-name="Group 173" transform="translate(0 3.978)">
          <g id="Group_172" data-name="Group 172">
            <path id="Path_400" data-name="Path 400" d="M299.276,292.3l-32.3,18.643-66-38.106,32.3-18.643Z" transform="translate(-200.98 -254.19)" fill="#fff"/>
            <path id="Path_401" data-name="Path 401" d="M275.087,278.33v58.643l-32.3,18.643V296.973Z" transform="translate(-176.791 -240.224)" fill="url(#linear-gradient-42)"/>
            <path id="Path_402" data-name="Path 402" d="M200.98,266v58.643l66,38.106V304.106Z" transform="translate(-200.98 -247.357)" fill="#c1cdf8"/>
          </g>
        </g>
        <g id="Group_174" data-name="Group 174" transform="translate(19.321)">
          <path id="Path_403" data-name="Path 403" d="M216.31,276.231l31,17.838,23.773-12.976L239.357,262.94Z" transform="translate(-211.432 -245.15)" fill="url(#linear-gradient-43)"/>
          <path id="Path_404" data-name="Path 404" d="M218.1,282.752,213.22,251.67l34.412,19.842,1.468,29.077Z" transform="translate(-213.22 -251.67)" fill="#c1cdf8"/>
        </g>
      </g>
    </g>
    <g id="Group_183" data-name="Group 183" clip-path="url(#clip-path)">
      <g id="Group_177" data-name="Group 177" transform="translate(496.537 372.653)">
        <path id="Path_405" data-name="Path 405" d="M323.44,262.817h0a3.729,3.729,0,0,1-4.309-3l-2.7-15.107a3.729,3.729,0,0,1,3-4.309h0a3.729,3.729,0,0,1,4.309,3l2.7,15.107A3.733,3.733,0,0,1,323.44,262.817Z" transform="translate(-313.501 -233.604)" fill="#e6a984"/>
        <path id="Path_406" data-name="Path 406" d="M327.587,250.006l-1.642-9.2a5.756,5.756,0,0,0-6.661-4.641h0a5.756,5.756,0,0,0-4.641,6.661l1.642,9.2S321.194,256.542,327.587,250.006Z" transform="translate(-314.554 -236.074)" fill="#675bda"/>
        <path id="Path_407" data-name="Path 407" d="M339.019,258.611h0a3.739,3.739,0,0,1-4.657,2.431l-12.8-3.725a3.71,3.71,0,0,1-3.457-3.946h0a3.705,3.705,0,0,1,3.931-3.457l14.538,4.057A3.687,3.687,0,0,1,339.019,258.611Z" transform="translate(-312.505 -228.072)" fill="#e6a984"/>
      </g>
      <g id="Group_179" data-name="Group 179" transform="translate(482.608 410.721)">
        <g id="Group_178" data-name="Group 178" transform="translate(0.579 43.278)">
          <path id="Path_408" data-name="Path 408" d="M306.1,295.679c-.158,1.61,3.71,2.62,6.961,4.5,4.515,2.6,9.392,4.025,11.7,2.684a1.519,1.519,0,0,0,.884-1.279V298.93c.079-1.5-2.147-3.788-5.541-7.088-3.741-3.646-6.125-5.92-11.7-2.684-1.594.915-2.242,1.61-2.242,2.194Z" transform="translate(-306.097 -287.606)" fill="#080c01"/>
          <path id="Path_409" data-name="Path 409" d="M320.092,291.839c4.515,4.4,6.977,6.993,4.657,8.335s-6.946-.679-11.7-4.262c-4.167-3.141-10.245-3.536-4.657-6.756C313.967,285.935,316.35,288.208,320.092,291.839Z" transform="translate(-306.069 -287.602)" fill="#22223a"/>
        </g>
        <path id="Path_410" data-name="Path 410" d="M316.717,304.516a2.529,2.529,0,0,0,.253-1.121V264.642c0-2.447-2.526-4.452-5.62-4.452h0c-3.094,0-5.62,2-5.62,4.452v42.131a1.441,1.441,0,0,0,.995,1.358C308.9,308.793,314,309.725,316.717,304.516Z" transform="translate(-305.73 -260.19)" fill="#4981fb"/>
      </g>
      <g id="Group_181" data-name="Group 181" transform="translate(494.763 401.771)">
        <g id="Group_180" data-name="Group 180" transform="translate(0.579 43.278)">
          <path id="Path_411" data-name="Path 411" d="M313.8,290.009c-.158,1.61,3.71,2.62,6.961,4.5,4.515,2.6,9.392,4.025,11.7,2.684a1.519,1.519,0,0,0,.884-1.279V293.26c.079-1.5-2.147-3.788-5.541-7.088-3.741-3.646-6.125-5.92-11.7-2.684-1.594.916-2.242,1.61-2.242,2.194Z" transform="translate(-313.797 -281.936)" fill="#080c01"/>
          <path id="Path_412" data-name="Path 412" d="M327.791,286.173c4.515,4.4,6.977,6.993,4.657,8.335s-6.946-.679-11.7-4.262c-4.167-3.141-10.245-3.536-4.657-6.756C321.667,280.253,324.05,282.526,327.791,286.173Z" transform="translate(-313.769 -281.936)" fill="#22223a"/>
        </g>
        <path id="Path_413" data-name="Path 413" d="M324.417,298.846a2.529,2.529,0,0,0,.253-1.121V258.972c0-2.447-2.526-4.452-5.62-4.452h0c-3.094,0-5.62,2-5.62,4.452V301.1a1.441,1.441,0,0,0,.995,1.358C316.6,303.108,321.7,304.039,324.417,298.846Z" transform="translate(-313.43 -254.52)" fill="#4556c5"/>
      </g>
      <path id="Path_414" data-name="Path 414" d="M309.606,286.429a1,1,0,0,0,.474.158c2.478.189,11.413-1.752,20.332-11.808a4.633,4.633,0,0,0,1.215-2.889V243.335c0-2.147-.773-3.662-2-4.357l-6.709-3.915c-1.215-.726-2.92-.647-4.783.442l-9.156,5.288a14.918,14.918,0,0,0-6.725,11.65v28.714a1.463,1.463,0,0,0,.647,1.373Z" transform="translate(174.865 135.721)" fill="#b5b8fc"/>
      <path id="Path_415" data-name="Path 415" d="M308.56,242.922a2.3,2.3,0,0,0,1.389,1.957,7.358,7.358,0,0,0,6.693,0,2.333,2.333,0,0,0,1.389-1.957V236.7a2.3,2.3,0,0,0-1.389-1.957,7.358,7.358,0,0,0-6.693,0,2.333,2.333,0,0,0-1.389,1.957Z" transform="translate(178.515 135.345)" fill="#d5a69b"/>
      <circle id="Ellipse_6" data-name="Ellipse 6" cx="13.039" cy="13.039" r="13.039" transform="translate(474.904 354.699) rotate(-21.341)" fill="#edc3b6"/>
      <path id="Path_416" data-name="Path 416" d="M306.967,220.975c-11.145,3.82-5.6,20.095,2.51,25.967,3.962-2.163-.852-6.046,4.546-3.346,1.073-5.241-1.342-3.646.126-10.229,5.667,2.952,16.685-.631,18.406-6.093-1.973-.884-4.041-6.472-8.65-8.54C317.938,216.1,310.345,217.265,306.967,220.975Z" transform="translate(173.968 125.721)" fill="#cf8720" fill-rule="evenodd"/>
      <path id="Path_417" data-name="Path 417" d="M310.582,235.706c0,1.547-1.089,2.178-2.431,1.4a5.386,5.386,0,0,1-2.431-4.215c0-1.547,1.089-2.178,2.431-1.4A5.361,5.361,0,0,1,310.582,235.706Z" transform="translate(176.872 133.737)" fill="#edc3b6"/>
      <path id="Path_418" data-name="Path 418" d="M305.75,263.038l20.411,11.776,20.411-11.776v-8.966L326.161,242.28,305.75,254.072Z" transform="translate(176.89 140.17)" fill="#c1cdf8" fill-rule="evenodd"/>
      <path id="Path_419" data-name="Path 419" d="M326.161,242.28,305.75,254.072l20.411,11.539,20.411-11.539Z" transform="translate(176.89 140.17)" fill="#fff" fill-rule="evenodd"/>
      <g id="Group_182" data-name="Group 182" transform="translate(474.15 381.6)">
        <path id="Path_420" data-name="Path 420" d="M308.5,268.6h0a3.726,3.726,0,0,1-4.2-3.141l-2.178-15.2a3.726,3.726,0,0,1,3.141-4.2h0a3.726,3.726,0,0,1,4.2,3.141l2.178,15.2A3.738,3.738,0,0,1,308.5,268.6Z" transform="translate(-299.379 -239.263)" fill="#e6a984"/>
        <path id="Path_421" data-name="Path 421" d="M313.108,255.914l-1.326-9.25a5.734,5.734,0,0,0-6.488-4.862h0a5.733,5.733,0,0,0-4.862,6.488l1.326,9.25S306.494,262.229,313.108,255.914Z" transform="translate(-300.372 -241.742)" fill="#675bda"/>
        <path id="Path_422" data-name="Path 422" d="M328.217,266.476h0a3.718,3.718,0,0,1-4.736,2.257l-16.669-5.714a3.7,3.7,0,0,1-3.315-4.057h0a3.7,3.7,0,0,1,4.057-3.315l18.406,6.093A3.718,3.718,0,0,1,328.217,266.476Z" transform="translate(-298.575 -233.708)" fill="#e6a984"/>
      </g>
    </g>
    <g id="Group_194" data-name="Group 194" clip-path="url(#clip-path)">
      <g id="Group_188" data-name="Group 188" transform="translate(68.48 376.134)">
        <path id="Path_423" data-name="Path 423" d="M80.727,263.394,47.42,282.621a8.064,8.064,0,0,0-3.283,10.387l10.5,22.636a8.078,8.078,0,0,0,6.077,4.578l50.5,7.814a8.086,8.086,0,0,0,5.272-.979l33.307-19.227a8.08,8.08,0,0,0,3.283-10.387l-10.5-22.636a8.078,8.078,0,0,0-6.077-4.578L86,262.415A8.068,8.068,0,0,0,80.727,263.394Z" transform="translate(-43.382 -224.371)" fill="#fff"/>
        <g id="Group_184" data-name="Group 184" transform="translate(0.044 65.811)">
          <path id="Path_424" data-name="Path 424" d="M153.8,290.578a8.016,8.016,0,0,1-4.01,7.025l-33.307,19.227a8.086,8.086,0,0,1-5.272.979l-50.5-7.8a8.025,8.025,0,0,1-6.077-4.578L44.136,282.8a7.958,7.958,0,0,1-.726-2.826V542.245a7.974,7.974,0,0,0,.726,3.362l10.5,22.636a8.078,8.078,0,0,0,6.077,4.578l50.5,7.814a8.086,8.086,0,0,0,5.272-.979l33.307-19.227a8.063,8.063,0,0,0,4.01-7.545Z" transform="translate(-43.41 -279.97)" fill="url(#linear-gradient-44)"/>
        </g>
        <g id="Group_185" data-name="Group 185" transform="translate(10.684 60.523)">
          <path id="Path_425" data-name="Path 425" d="M112.581,292.027a8.086,8.086,0,0,1-5.272.979l-50.5-7.814a8.026,8.026,0,0,1-6.077-4.578l-.584-1.263v3.173a6.521,6.521,0,0,0,.584,2.636l8.477,18.264a6.516,6.516,0,0,0,4.909,3.694l40.758,6.3a6.52,6.52,0,0,0,4.246-.789l26.883-15.517a6.513,6.513,0,0,0,3.236-6.077V276.62Z" transform="translate(-50.15 -276.62)" fill="#83e8fe"/>
        </g>
        <g id="Group_187" data-name="Group 187">
          <path id="Path_426" data-name="Path 426" d="M80.727,239.354,47.42,258.581a8.064,8.064,0,0,0-3.283,10.387l10.5,22.636a8.078,8.078,0,0,0,6.077,4.578l50.5,7.814a8.086,8.086,0,0,0,5.272-.979l33.307-19.227a8.08,8.08,0,0,0,3.283-10.387l-10.5-22.636a8.078,8.078,0,0,0-6.077-4.578L86,238.375A8.068,8.068,0,0,0,80.727,239.354Z" transform="translate(-43.382 -238.279)" fill="#fff"/>
          <g id="Group_186" data-name="Group 186" transform="translate(0.044 27.847)">
            <path id="Path_427" data-name="Path 427" d="M153.8,266.544a8.016,8.016,0,0,1-4.01,7.025l-33.307,19.227a8.086,8.086,0,0,1-5.272.979l-50.5-7.814a8.026,8.026,0,0,1-6.077-4.578l-10.5-22.636a7.957,7.957,0,0,1-.726-2.826v10.671a7.974,7.974,0,0,0,.726,3.362l10.5,22.636a8.078,8.078,0,0,0,6.077,4.578l50.513,7.814A8.086,8.086,0,0,0,116.5,304L149.8,284.776a8.063,8.063,0,0,0,4.01-7.545V266.544Z" transform="translate(-43.41 -255.92)" fill="url(#linear-gradient-45)"/>
          </g>
          <path id="Path_428" data-name="Path 428" d="M80.267,243.172,53.384,258.689a6.512,6.512,0,0,0-2.652,8.382l8.477,18.264a6.516,6.516,0,0,0,4.909,3.694l40.758,6.3a6.52,6.52,0,0,0,4.246-.789l26.883-15.517a6.512,6.512,0,0,0,2.652-8.382l-8.477-18.264a6.516,6.516,0,0,0-4.909-3.694l-40.758-6.314A6.565,6.565,0,0,0,80.267,243.172Z" transform="translate(-39.48 -235.956)" fill="url(#linear-gradient-46)"/>
          <path id="Path_429" data-name="Path 429" d="M53.386,262.662l26.883-15.517a6.425,6.425,0,0,1,4.246-.789l40.758,6.314a6.516,6.516,0,0,1,4.909,3.694l8.477,18.264a6.7,6.7,0,0,1,.284.789,6.505,6.505,0,0,0-.284-4.767l-8.477-18.264a6.516,6.516,0,0,0-4.909-3.694l-40.758-6.314a6.52,6.52,0,0,0-4.246.789L53.386,258.684a6.518,6.518,0,0,0-2.936,7.593A6.42,6.42,0,0,1,53.386,262.662Z" transform="translate(-39.466 -235.951)" fill="url(#linear-gradient-47)"/>
        </g>
      </g>
      <g id="Group_193" data-name="Group 193" transform="translate(257.77 483.585)">
        <path id="Path_430" data-name="Path 430" d="M200.635,331.467l-33.307,19.227a8.08,8.08,0,0,0-3.283,10.387l10.5,22.636a8.077,8.077,0,0,0,6.093,4.578l50.5,7.814a8.086,8.086,0,0,0,5.272-.979L269.712,375.9A8.08,8.08,0,0,0,273,365.516L262.5,342.88a8.078,8.078,0,0,0-6.077-4.578l-50.5-7.814A7.924,7.924,0,0,0,200.635,331.467Z" transform="translate(-163.296 -292.444)" fill="#fff"/>
        <g id="Group_189" data-name="Group 189" transform="translate(0.022 65.78)">
          <path id="Path_431" data-name="Path 431" d="M273.713,358.644a8.016,8.016,0,0,1-4.009,7.025L236.4,384.895a8.086,8.086,0,0,1-5.272.979l-50.5-7.814a8.077,8.077,0,0,1-6.093-4.578l-10.5-22.636a7.957,7.957,0,0,1-.726-2.826V610.3a7.853,7.853,0,0,0,.726,3.346l10.5,22.636a8.077,8.077,0,0,0,6.093,4.578l50.5,7.814a8.086,8.086,0,0,0,5.272-.979L269.7,628.464a8.063,8.063,0,0,0,4.009-7.545Z" transform="translate(-163.31 -348.02)" fill="url(#linear-gradient-48)"/>
        </g>
        <g id="Group_190" data-name="Group 190" transform="translate(10.677 60.523)">
          <path id="Path_432" data-name="Path 432" d="M232.507,360.081a8.086,8.086,0,0,1-5.272.979l-50.5-7.814a8.077,8.077,0,0,1-6.093-4.578l-.584-1.263v3.173a6.521,6.521,0,0,0,.584,2.636l8.477,18.264a6.516,6.516,0,0,0,4.909,3.694l40.758,6.314a6.521,6.521,0,0,0,4.246-.789l26.883-15.517a6.513,6.513,0,0,0,3.236-6.077V344.69Z" transform="translate(-170.06 -344.69)" fill="#83e8fe"/>
        </g>
        <g id="Group_192" data-name="Group 192">
          <path id="Path_433" data-name="Path 433" d="M200.635,307.424l-33.307,19.227a8.08,8.08,0,0,0-3.283,10.387l10.5,22.636a8.077,8.077,0,0,0,6.093,4.578l50.5,7.814a8.086,8.086,0,0,0,5.272-.979l33.307-19.227A8.08,8.08,0,0,0,273,341.473l-10.5-22.636a8.078,8.078,0,0,0-6.077-4.578l-50.5-7.814A8.114,8.114,0,0,0,200.635,307.424Z" transform="translate(-163.296 -306.349)" fill="#fff"/>
          <g id="Group_191" data-name="Group 191" transform="translate(0.022 27.832)">
            <path id="Path_434" data-name="Path 434" d="M273.713,334.6a8.016,8.016,0,0,1-4.009,7.024L236.4,360.855a8.086,8.086,0,0,1-5.272.979l-50.5-7.814a8.077,8.077,0,0,1-6.093-4.578l-10.5-22.636a7.957,7.957,0,0,1-.726-2.826v10.671a7.853,7.853,0,0,0,.726,3.346l10.5,22.636a8.077,8.077,0,0,0,6.093,4.578l50.5,7.814a8.086,8.086,0,0,0,5.272-.979L269.7,352.82a8.063,8.063,0,0,0,4.009-7.545Z" transform="translate(-163.31 -323.98)" fill="url(#linear-gradient-49)"/>
          </g>
          <path id="Path_435" data-name="Path 435" d="M200.187,311.237,173.3,326.754a6.512,6.512,0,0,0-2.652,8.382l8.477,18.264a6.516,6.516,0,0,0,4.909,3.694l40.758,6.314a6.521,6.521,0,0,0,4.246-.789L255.925,347.1a6.512,6.512,0,0,0,2.652-8.382L250.1,320.455a6.516,6.516,0,0,0-4.909-3.694l-40.758-6.3A6.324,6.324,0,0,0,200.187,311.237Z" transform="translate(-159.391 -304.021)" fill="url(#linear-gradient-50)"/>
          <path id="Path_436" data-name="Path 436" d="M173.3,330.722,200.179,315.2a6.425,6.425,0,0,1,4.246-.789l40.758,6.3a6.516,6.516,0,0,1,4.909,3.694l8.477,18.264a6.691,6.691,0,0,1,.284.789,6.505,6.505,0,0,0-.284-4.767l-8.477-18.264a6.516,6.516,0,0,0-4.909-3.694l-40.758-6.3a6.521,6.521,0,0,0-4.246.789L173.3,326.744a6.518,6.518,0,0,0-2.936,7.593A6.59,6.59,0,0,1,173.3,330.722Z" transform="translate(-159.383 -304.027)" fill="url(#linear-gradient-51)"/>
        </g>
      </g>
    </g>
    <g id="Group_206" data-name="Group 206" clip-path="url(#clip-path)">
      <g id="Group_204" data-name="Group 204" transform="translate(247.582 455.046)">
        <g id="Group_202" data-name="Group 202">
          <g id="Group_195" data-name="Group 195" transform="translate(1.265 29.631)">
            <path id="Path_437" data-name="Path 437" d="M171.592,332.306h0a3.721,3.721,0,0,0,4.878-1.942l6.077-14.1a3.721,3.721,0,0,0-1.942-4.878h0a3.721,3.721,0,0,0-4.878,1.942l-6.077,14.1A3.721,3.721,0,0,0,171.592,332.306Z" transform="translate(-150.87 -304.698)" fill="#794458"/>
            <path id="Path_438" data-name="Path 438" d="M171.07,319.068l3.71-8.571a5.747,5.747,0,0,1,7.545-2.983h0a5.768,5.768,0,0,1,3,7.545l-3.71,8.572C181.6,323.615,175.806,326.882,171.07,319.068Z" transform="translate(-149.875 -307.04)" fill="#c1cdf8"/>
            <path id="Path_439" data-name="Path 439" d="M157.654,325.056h0a3.733,3.733,0,0,0,3.978,3.425l17.585-1.137a3.735,3.735,0,0,0,4.278-3.047h0a3.735,3.735,0,0,0-3.047-4.278L161.1,321.062A3.747,3.747,0,0,0,157.654,325.056Z" transform="translate(-157.643 -299.531)" fill="#794458"/>
          </g>
          <g id="Group_196" data-name="Group 196" transform="translate(10.014 61.614)">
            <path id="Path_440" data-name="Path 440" d="M193.374,339.012a2.792,2.792,0,0,1-.916.852L171.354,351.94c-2.3,1.326-5.541.032-7.2-2.873h0c-1.657-2.9-1.137-6.346,1.152-7.672L189.586,327.5a1.549,1.549,0,0,1,1.815.205C193.169,329.383,196.784,333.676,193.374,339.012Z" transform="translate(-163.186 -327.301)" fill="#31314f"/>
          </g>
          <g id="Group_197" data-name="Group 197" transform="translate(23.984 68.781)">
            <path id="Path_441" data-name="Path 441" d="M202.224,343.552a2.792,2.792,0,0,1-.916.852L180.2,356.48c-2.3,1.326-5.541.032-7.2-2.873h0c-1.657-2.9-1.137-6.346,1.152-7.672l24.278-13.891a1.549,1.549,0,0,1,1.815.205C202.019,333.907,205.65,338.2,202.224,343.552Z" transform="translate(-172.036 -331.841)" fill="#48486a"/>
          </g>
          <g id="Group_199" data-name="Group 199" transform="translate(0 74.95)">
            <g id="Group_198" data-name="Group 198" transform="translate(0 33.132)">
              <path id="Path_442" data-name="Path 442" d="M178,365.47c.174,1.752-4.009,2.841-7.53,4.862-4.893,2.826-10.15,4.357-12.66,2.9a1.687,1.687,0,0,1-.963-1.373V368.99c-.095-1.626,2.32-4.1,6-7.672,4.041-3.946,6.614-6.393,12.66-2.9,1.721.995,2.415,1.736,2.431,2.384Z" transform="translate(-156.838 -356.739)" fill="#080c01"/>
              <path id="Path_443" data-name="Path 443" d="M162.837,361.332c-4.878,4.751-7.545,7.577-5.036,9.013,2.51,1.452,7.514-.726,12.66-4.625,4.5-3.41,11.081-3.82,5.036-7.309C169.467,354.924,166.894,357.386,162.837,361.332Z" transform="translate(-156.842 -356.738)" fill="#22223a"/>
            </g>
            <path id="Path_444" data-name="Path 444" d="M163.224,370.02a2.7,2.7,0,0,1-.284-1.215v-28.24c0-2.652,2.731-4.815,6.077-4.815h0c3.346,0,6.077,2.163,6.077,4.815v31.9a1.545,1.545,0,0,1-1.073,1.468C171.685,374.63,166.16,375.64,163.224,370.02Z" transform="translate(-153.314 -335.75)" fill="#31314f"/>
          </g>
          <path id="Path_445" data-name="Path 445" d="M198.566,361.379a1.075,1.075,0,0,1-.521.174c-2.684.205-12.344-1.894-22-12.786a5.1,5.1,0,0,1-1.31-3.126V314.748c0-2.32.837-3.962,2.163-4.72l7.261-4.23c1.326-.789,3.157-.695,5.178.474l9.9,5.714a16.139,16.139,0,0,1,7.277,12.6v31.066a1.569,1.569,0,0,1-.695,1.484Z" transform="translate(-146.493 -278.425)" fill="#fff"/>
          <g id="Group_201" data-name="Group 201" transform="translate(14.47 81.344)">
            <g id="Group_200" data-name="Group 200" transform="translate(0 33.143)">
              <path id="Path_446" data-name="Path 446" d="M187.163,369.53c.174,1.752-4.009,2.841-7.53,4.862-4.893,2.826-10.15,4.357-12.66,2.9a1.687,1.687,0,0,1-.963-1.373V373.05c-.095-1.626,2.32-4.1,6-7.672,4.041-3.946,6.614-6.393,12.66-2.9,1.721.995,2.415,1.736,2.431,2.384Z" transform="translate(-166.008 -360.795)" fill="#080c01"/>
              <path id="Path_447" data-name="Path 447" d="M172.007,365.38c-4.878,4.751-7.545,7.577-5.036,9.013,2.51,1.452,7.514-.726,12.66-4.625,4.5-3.41,11.081-3.82,5.036-7.309C178.637,358.987,176.048,361.434,172.007,365.38Z" transform="translate(-166.006 -360.796)" fill="#22223a"/>
            </g>
            <path id="Path_448" data-name="Path 448" d="M172.394,374.07a2.7,2.7,0,0,1-.284-1.215v-28.24c0-2.652,2.731-4.815,6.077-4.815h0c3.346,0,6.077,2.163,6.077,4.815v31.9a1.545,1.545,0,0,1-1.073,1.468C180.855,378.7,175.33,379.706,172.394,374.07Z" transform="translate(-162.478 -339.8)" fill="#48486a"/>
          </g>
          <path id="Path_449" data-name="Path 449" d="M192.895,314.312a2.552,2.552,0,0,1-1.5,2.131,8.025,8.025,0,0,1-7.246,0,2.533,2.533,0,0,1-1.5-2.131v-6.725a2.552,2.552,0,0,1,1.5-2.131,8.025,8.025,0,0,1,7.246,0,2.533,2.533,0,0,1,1.5,2.131Z" transform="translate(-141.911 -278.826)" fill="#794458"/>
          <path id="Path_450" data-name="Path 450" d="M176.96,304.846a14.1,14.1,0,1,0,14.1-14.1A14.1,14.1,0,0,0,176.96,304.846Z" transform="translate(-145.203 -286.834)" fill="url(#linear-gradient-52)"/>
          <path id="Path_451" data-name="Path 451" d="M198.9,317.331a11.141,11.141,0,0,1-2.9-4.7,1.231,1.231,0,0,1-.047-.347v-6.756a7.339,7.339,0,0,0-1.026-3.82,3.115,3.115,0,0,0-2.747-1.752s-11.318,4.925-15.549-4.278a1.247,1.247,0,0,1,.805-1.736c.805-.189,1.878-.884,3.062-2.81a1.251,1.251,0,0,1,1.342-.584,4.989,4.989,0,0,0,5.083-1.878,1.176,1.176,0,0,1,.931-.395c2.147.047,9.6.395,13.654,3.331a.345.345,0,0,1,.079.063c.868.71,14.87,12.644-.994,25.7A1.225,1.225,0,0,1,198.9,317.331Z" transform="translate(-145.464 -288.269)" fill="#4b486c"/>
          <path id="Path_452" data-name="Path 452" d="M188.88,306.507c0,1.689,1.184,2.368,2.636,1.515a5.836,5.836,0,0,0,2.636-4.562c0-1.689-1.184-2.368-2.636-1.515A5.811,5.811,0,0,0,188.88,306.507Z" transform="translate(-138.306 -280.57)" fill="#995e73"/>
        </g>
        <g id="Group_203" data-name="Group 203" transform="translate(6.595 48.936)">
          <path id="Path_453" data-name="Path 453" d="M163.53,339.191l25.13,14.46,19.274-10.513L182.22,328.41Z" transform="translate(-159.568 -313.982)" fill="url(#linear-gradient-53)"/>
          <path id="Path_454" data-name="Path 454" d="M164.982,344.479,161.02,319.27l27.909,16.085,1.184,23.583Z" transform="translate(-161.02 -319.27)" fill="#c1cdf8"/>
        </g>
      </g>
      <g id="Group_205" data-name="Group 205" transform="translate(279.254 496.155)">
        <path id="Path_455" data-name="Path 455" d="M191.216,341.165h0a3.726,3.726,0,0,0,4.2-3.141l2.178-15.2a3.726,3.726,0,0,0-3.141-4.2h0a3.726,3.726,0,0,0-4.2,3.141l-2.178,15.2A3.706,3.706,0,0,0,191.216,341.165Z" transform="translate(-170.468 -311.838)" fill="#995e73"/>
        <path id="Path_456" data-name="Path 456" d="M187.75,328.484l1.326-9.25a5.733,5.733,0,0,1,6.488-4.862h0a5.734,5.734,0,0,1,4.862,6.488l-1.326,9.25S194.364,334.783,187.75,328.484Z" transform="translate(-170.632 -314.312)" fill="#c1cdf8"/>
        <path id="Path_457" data-name="Path 457" d="M177.117,339.036h0a3.718,3.718,0,0,0,4.736,2.257l16.669-5.714a3.7,3.7,0,0,0,3.315-4.057h0a3.7,3.7,0,0,0-4.057-3.315L179.375,334.3A3.731,3.731,0,0,0,177.117,339.036Z" transform="translate(-176.906 -306.284)" fill="#995e73"/>
      </g>
    </g>
    <g id="Group_213" data-name="Group 213" clip-path="url(#clip-path)">
      <g id="Group_207" data-name="Group 207" transform="translate(196.598 279.899)">
        <path id="Path_458" data-name="Path 458" d="M124.551,183.082c-.095,1.626,2.352,3.883,6.062,6.03,4.941,2.857,6.693,6.472,12.818,2.952,1.752-1.01,2.478-1.815,2.526-2.51v-3.8c.174-1.768-4.073-2.873-7.624-4.925-4.941-2.857-10.276-4.4-12.818-2.952a1.666,1.666,0,0,0-.963,1.4v3.8Z" transform="translate(-124.542 -177.312)"/>
        <path id="Path_459" data-name="Path 459" d="M130.615,185.279c-4.941-2.857-7.64-5.935-5.1-7.4s7.861.095,12.818,2.952c4.941,2.857,11.223,3.867,5.1,7.4C137.324,191.751,135.572,188.136,130.615,185.279Z" transform="translate(-124.544 -177.315)" fill="#2b155e"/>
      </g>
      <g id="Group_208" data-name="Group 208" transform="translate(210.354 270.428)">
        <path id="Path_460" data-name="Path 460" d="M133.261,177.082c-.095,1.626,2.352,3.883,6.062,6.03,4.941,2.857,6.693,6.472,12.818,2.952,1.752-1.01,2.478-1.815,2.526-2.51v-3.8c.174-1.768-4.073-2.873-7.624-4.925-4.941-2.857-10.276-4.4-12.818-2.952a1.666,1.666,0,0,0-.963,1.4Z" transform="translate(-133.258 -171.312)"/>
        <path id="Path_461" data-name="Path 461" d="M139.335,179.279c-4.941-2.857-7.64-5.935-5.1-7.4s7.861.095,12.818,2.952c4.941,2.857,11.223,3.867,5.1,7.4C146.028,185.751,144.276,182.136,139.335,179.279Z" transform="translate(-133.255 -171.315)" fill="#2b155e"/>
      </g>
      <g id="Group_209" data-name="Group 209" transform="translate(211.975 162.014)">
        <path id="Path_462" data-name="Path 462" d="M137.15,102.816h0a4.057,4.057,0,0,1,5.067,2.684l9.313,30.308a4.057,4.057,0,0,1-2.684,5.067h0a4.057,4.057,0,0,1-5.067-2.684l-9.313-30.308A4.057,4.057,0,0,1,137.15,102.816Z" transform="translate(-134.285 -102.635)" fill="#dfaa86"/>
        <path id="Path_463" data-name="Path 463" d="M138.03,124.319l3,9.787a6.284,6.284,0,0,0,7.845,4.152h0a6.284,6.284,0,0,0,4.152-7.845l-3-9.787S144.107,116.379,138.03,124.319Z" transform="translate(-132.119 -92.883)" fill="#4981fb"/>
      </g>
      <g id="Group_210" data-name="Group 210" transform="translate(205.842 238.06)">
        <path id="Path_464" data-name="Path 464" d="M142.4,199.35a2.763,2.763,0,0,0,.284-1.231V155.688c0-2.684-2.762-4.878-6.141-4.878h0c-3.378,0-6.141,2.194-6.141,4.878v46.141a1.559,1.559,0,0,0,1.089,1.484C133.841,204.023,139.429,205.033,142.4,199.35Z" transform="translate(-130.4 -150.81)" fill="#313974"/>
      </g>
      <g id="Group_211" data-name="Group 211" transform="translate(219.149 228.242)">
        <path id="Path_465" data-name="Path 465" d="M150.827,193.13a2.763,2.763,0,0,0,.284-1.231V149.468c0-2.684-2.762-4.878-6.141-4.878h0c-3.378,0-6.141,2.194-6.141,4.878v46.141a1.559,1.559,0,0,0,1.089,1.484C142.271,197.8,147.859,198.829,150.827,193.13Z" transform="translate(-138.83 -144.59)" fill="#4556c5"/>
      </g>
      <path id="Path_466" data-name="Path 466" d="M134.631,179.537a1.2,1.2,0,0,0,.521.174c2.715.205,12.486-1.926,22.273-12.928a5.12,5.12,0,0,0,1.326-3.173V132.339c0-2.352-.837-4.009-2.194-4.767l-7.356-4.294c-1.342-.789-3.189-.695-5.241.474l-10.024,5.793A16.332,16.332,0,0,0,126.58,142.3v31.445a1.6,1.6,0,0,0,.71,1.5Z" transform="translate(73.232 71.025)" fill="#c5d9fe"/>
      <path id="Path_467" data-name="Path 467" d="M133.48,131.9A2.543,2.543,0,0,0,135,134.044a8.092,8.092,0,0,0,7.324,0,2.562,2.562,0,0,0,1.515-2.147v-6.819a2.543,2.543,0,0,0-1.515-2.147,8.092,8.092,0,0,0-7.324,0,2.562,2.562,0,0,0-1.515,2.147Z" transform="translate(77.224 70.614)" fill="#ca9270"/>
      <circle id="Ellipse_7" data-name="Ellipse 7" cx="14.27" cy="14.27" r="14.27" transform="matrix(0.231, -0.973, 0.973, 0.231, 198.683, 195.432)" fill="#dfaa86"/>
      <g id="Group_212" data-name="Group 212" transform="translate(185.723 171.643)">
        <path id="Path_468" data-name="Path 468" d="M120.047,109.09h0a4.071,4.071,0,0,1,5.367,2.036l11.934,28.556a4.071,4.071,0,0,1-2.036,5.367h0a4.071,4.071,0,0,1-5.367-2.036L118.01,114.457A4.071,4.071,0,0,1,120.047,109.09Z" transform="translate(-117.655 -108.735)" fill="#dfaa86"/>
        <path id="Path_469" data-name="Path 469" d="M122.86,130.267l4.183,9.329a6.285,6.285,0,0,0,8.3,3.157h0a6.29,6.29,0,0,0,3.157-8.3l-4.183-9.329C134.32,125.137,127.911,121.648,122.86,130.267Z" transform="translate(-114.644 -99.651)" fill="#4981fb"/>
      </g>
      <path id="Path_470" data-name="Path 470" d="M150.061,136.834c-4.5,2.62-7.94.631-9.171-1.263-3.078-4.767-3.583-1.594-5.43-3.836-2.4-3.946-1.863-9.345-5.209-11.823-4.783-3.568-3.473-10.687,9.014-13.875,16.78-4.278,23.394,16.859,12.913,29.077A6.6,6.6,0,0,1,150.061,136.834Z" transform="translate(73.871 61.021)" fill="#9e5e17" fill-rule="evenodd"/>
      <path id="Path_471" data-name="Path 471" d="M134.746,124.928c-1.2,1.2-2.541.852-2.983-.805a5.887,5.887,0,0,1,1.389-5.162c1.2-1.2,2.541-.852,2.983.805A5.921,5.921,0,0,1,134.746,124.928Z" transform="translate(76.148 68.412)" fill="#dfaa86"/>
    </g>
    <g id="Group_225" data-name="Group 225" clip-path="url(#clip-path)">
      <g id="Group_224" data-name="Group 224" transform="translate(228.947 254.076)">
        <g id="Group_214" data-name="Group 214" transform="translate(36.162 28.444)">
          <path id="Path_472" data-name="Path 472" d="M186.9,214.957h0a3.561,3.561,0,0,1-4.7-1.768l-11.492-25.32a3.56,3.56,0,0,1,1.768-4.7h0a3.584,3.584,0,0,1,4.72,1.768l11.492,25.32A3.586,3.586,0,0,1,186.9,214.957Z" transform="translate(-166.531 -176.734)" fill="url(#linear-gradient-54)"/>
          <path id="Path_473" data-name="Path 473" d="M182.175,190.364l-3.71-8.161a5.506,5.506,0,0,0-7.293-2.731h0a5.506,5.506,0,0,0-2.731,7.293l3.71,8.161C172.152,194.91,177.771,197.941,182.175,190.364Z" transform="translate(-167.945 -178.975)" fill="#e7c650"/>
        </g>
        <g id="Group_216" data-name="Group 216" transform="translate(34.891 34.908)">
          <path id="Path_474" data-name="Path 474" d="M190.076,214.8,167.14,201.555V183.07L190.076,196.3Z" transform="translate(-167.14 -183.07)" fill="url(#linear-gradient-55)"/>
          <g id="Group_215" data-name="Group 215" transform="translate(12.849 10.134)">
            <path id="Path_475" data-name="Path 475" d="M178.09,205.153V191.12l.489.284v14.033Z" transform="translate(-173.654 -188.547)" fill="#9e99f8"/>
            <path id="Path_476" data-name="Path 476" d="M177.39,200.592V190.71l.489.284v9.882Z" transform="translate(-174.059 -188.784)" fill="#9e99f8"/>
            <path id="Path_477" data-name="Path 477" d="M176.69,203.254V190.31l.489.284v12.944Z" transform="translate(-174.464 -189.016)" fill="#9e99f8"/>
            <path id="Path_478" data-name="Path 478" d="M175.98,203.933V189.9l.489.284v14.033Z" transform="translate(-174.875 -189.253)" fill="#9e99f8"/>
            <path id="Path_479" data-name="Path 479" d="M175.28,194.636V189.49l.489.284v5.146Z" transform="translate(-175.28 -189.49)" fill="#9e99f8"/>
          </g>
        </g>
        <g id="Group_220" data-name="Group 220" transform="translate(7.577 62.923)">
          <g id="Group_217" data-name="Group 217" transform="translate(25.783)">
            <path id="Path_480" data-name="Path 480" d="M166.438,204.689a2.509,2.509,0,0,0-.268,1.073l.016,12.092c-.032,2.352,2.368,4.309,5.32,4.357h0c2.968.047,5.414-1.847,5.446-4.2l.032-15.328a1.327,1.327,0,0,0-.931-1.31C174.015,200.7,169.122,199.732,166.438,204.689Z" transform="translate(-166.17 -200.817)" fill="url(#linear-gradient-56)"/>
          </g>
          <g id="Group_219" data-name="Group 219" transform="translate(0 11.016)">
            <g id="Group_218" data-name="Group 218" transform="translate(0 14.791)">
              <path id="Path_481" data-name="Path 481" d="M150.631,219.222c-1.437.616-.474,4.341-.537,7.94-.095,5,.995,9.755,3.189,11.081a1.514,1.514,0,0,0,1.484.158l2.226-1.231c1.294-.631,2.178-3.568,3.378-7.956,1.31-4.83,2.115-7.893-3.189-11.081-1.515-.916-2.4-1.121-2.889-.852Z" transform="translate(-149.837 -217.163)"/>
              <path id="Path_482" data-name="Path 482" d="M159.1,229.2c-1.594,5.841-2.62,9.108-4.83,7.8-2.21-1.326-2.668-6.156-1.863-11.808.71-4.957-1.8-10.245,3.5-7.056C161.214,221.308,160.425,224.37,159.1,229.2Z" transform="translate(-148.565 -217.166)" fill="#22223a"/>
            </g>
            <path id="Path_483" data-name="Path 483" d="M159.978,230.107a2.414,2.414,0,0,0,1.058-.3l21.91-12.155c2.052-1.137,2.557-4.2,1.121-6.788h0c-1.436-2.589-4.294-3.773-6.346-2.636L152.97,221.962a1.356,1.356,0,0,0-.679,1.468C152.749,225.529,154.343,230.249,159.978,230.107Z" transform="translate(-148.434 -207.796)" fill="url(#linear-gradient-57)"/>
          </g>
        </g>
        <g id="Group_222" data-name="Group 222" transform="translate(21.947 64.979)">
          <g id="Group_221" data-name="Group 221" transform="translate(0.532 41.536)">
            <path id="Path_484" data-name="Path 484" d="M159.282,236.167c-.158,1.547,3.568,2.51,6.677,4.325,4.341,2.51,9.014,3.867,11.239,2.589a1.464,1.464,0,0,0,.852-1.215v-2.541c.079-1.436-2.068-3.646-5.32-6.8-3.583-3.489-5.872-5.683-11.239-2.589-1.531.884-2.147,1.547-2.147,2.115Z" transform="translate(-159.277 -228.421)"/>
            <path id="Path_485" data-name="Path 485" d="M172.711,232.5c4.325,4.215,6.693,6.725,4.467,8s-6.677-.647-11.239-4.1c-3.994-3.015-9.834-3.394-4.467-6.488C166.823,226.818,169.112,229.012,172.711,232.5Z" transform="translate(-159.257 -228.433)" fill="#22223a"/>
          </g>
          <path id="Path_486" data-name="Path 486" d="M169.453,244.662a2.333,2.333,0,0,0,.253-1.073V206.4c0-2.352-2.431-4.278-5.383-4.278h0c-2.968,0-5.383,1.926-5.383,4.278V246.84a1.336,1.336,0,0,0,.963,1.294C161.939,248.75,166.849,249.65,169.453,244.662Z" transform="translate(-158.94 -202.12)" fill="url(#linear-gradient-58)"/>
        </g>
        <path id="Path_487" data-name="Path 487" d="M162.636,227.294a1.053,1.053,0,0,0,.458.158c2.384.189,10.955-1.689,19.527-11.334a4.463,4.463,0,0,0,1.168-2.778v-27.4c0-2.068-.742-3.52-1.926-4.183L175.422,178c-1.168-.695-2.794-.616-4.594.426l-8.792,5.067a14.306,14.306,0,0,0-6.456,11.176v27.577a1.426,1.426,0,0,0,.616,1.326Z" transform="translate(-138.937 -151.36)" fill="#ffffeb"/>
        <path id="Path_488" data-name="Path 488" d="M161.63,185.537a2.227,2.227,0,0,0,1.326,1.878,7.09,7.09,0,0,0,6.425,0,2.227,2.227,0,0,0,1.326-1.878V179.57a2.227,2.227,0,0,0-1.326-1.878,7.09,7.09,0,0,0-6.425,0,2.227,2.227,0,0,0-1.326,1.878Z" transform="translate(-135.437 -151.719)" fill="#d5a69b"/>
        <g id="Group_223" data-name="Group 223" transform="translate(0 35.437)">
          <path id="Path_489" data-name="Path 489" d="M146.983,218.781h0A3.561,3.561,0,0,1,145.421,214l12.549-24.815a3.561,3.561,0,0,1,4.783-1.563h0a3.561,3.561,0,0,1,1.563,4.783l-12.549,24.815A3.575,3.575,0,0,1,146.983,218.781Z" transform="translate(-145.037 -181.189)" fill="url(#linear-gradient-59)"/>
          <path id="Path_490" data-name="Path 490" d="M160.694,199.4l4.041-8A5.529,5.529,0,0,0,162.3,184h0a5.529,5.529,0,0,0-7.4,2.431l-4.041,8C150.876,194.431,152.028,200.729,160.694,199.4Z" transform="translate(-141.668 -183.406)" fill="#e7c650"/>
        </g>
        <circle id="Ellipse_8" data-name="Ellipse 8" cx="12.518" cy="12.518" r="12.518" transform="translate(18.347 5.799)" fill="url(#linear-gradient-60)"/>
        <path id="Path_491" data-name="Path 491" d="M160.174,164.467c-10.687,3.678-5.383,19.29,2.4,24.925,3.8-2.084-.821-5.793,4.373-3.2,1.026-5.036-1.294-3.5.126-9.819,5.43,2.841,16.022-.6,17.664-5.841-1.894-.837-3.883-6.219-8.3-8.193C170.719,159.794,163.426,160.915,160.174,164.467Z" transform="translate(-139.759 -160.956)" fill="#2b155e" fill-rule="evenodd"/>
        <path id="Path_492" data-name="Path 492" d="M163.652,178.613c0,1.5-1.042,2.1-2.336,1.358a5.152,5.152,0,0,1-2.336-4.057c0-1.5,1.042-2.1,2.336-1.358A5.152,5.152,0,0,1,163.652,178.613Z" transform="translate(-136.97 -153.272)" fill="#dfaa86"/>
      </g>
      <path id="Path_493" data-name="Path 493" d="M171.016,173c-2.115,1.231-3.836,4.562-3.836,7.435,0,2.889,1.721,4.23,3.836,3.015,2.115-1.231,3.836-4.562,3.836-7.435C174.852,173.13,173.131,171.789,171.016,173Zm0,5.225c-1.326.773-2.415.947-2.415.41s1.073-1.61,2.415-2.384c1.326-.774,2.415-.947,2.415-.41C173.415,176.4,172.342,177.471,171.016,178.229Z" transform="translate(96.721 99.831)" fill="#2b155e"/>
    </g>
  </g>
</svg>
