<svg xmlns="http://www.w3.org/2000/svg" width="839.749" height="838.163" viewBox="0 0 839.749 838.163">
  <g id="logo_2.3" data-name="logo 2.3" transform="translate(9568.699 6779.163)">
    <path id="Subtraction_8" data-name="Subtraction 8" d="M390.5,781a396.748,396.748,0,0,1-39.926-2.016,391.516,391.516,0,0,1-38.773-5.917c-12.58-2.574-25.171-5.812-37.423-9.623-12.114-3.768-24.185-8.186-35.877-13.131-11.583-4.9-23.068-10.432-34.135-16.444-10.988-5.969-21.82-12.55-32.2-19.56-10.326-6.976-20.44-14.539-30.062-22.48-9.6-7.921-18.928-16.4-27.731-25.2s-17.283-18.133-25.2-27.731c-7.94-9.621-15.5-19.736-22.48-30.062-7.01-10.375-13.59-21.208-19.56-32.2-6.012-11.067-11.544-22.552-16.444-34.135-4.945-11.692-9.363-23.763-13.131-35.878-3.811-12.251-7.048-24.842-9.623-37.423a391.482,391.482,0,0,1-5.917-38.773A396.754,396.754,0,0,1,0,390.5c0-4.636.083-9.337.245-13.973.438,12,1.478,24.091,3.09,35.939,1.59,11.683,3.776,23.41,6.5,34.856,2.688,11.308,5.963,22.613,9.734,33.6,3.732,10.876,8.038,21.7,12.8,32.178,4.721,10.387,10,20.677,15.695,30.584,5.656,9.842,11.854,19.538,18.42,28.819,6.538,9.241,13.595,18.286,20.974,26.883,7.365,8.581,15.224,16.918,23.358,24.777A361.222,361.222,0,0,0,363.055,726.11c200.189,0,363.055-162.866,363.055-363.055A361.222,361.222,0,0,0,624.166,110.813c-7.86-8.134-16.2-15.993-24.777-23.358-8.6-7.379-17.642-14.436-26.883-20.974-9.28-6.566-18.976-12.763-28.819-18.42-9.907-5.693-20.2-10.974-30.584-15.695-10.476-4.761-21.3-9.068-32.178-12.8-10.989-3.771-22.295-7.045-33.6-9.734-11.446-2.721-23.173-4.907-34.856-6.5C400.621,1.723,388.529.684,376.527.245,381.17.082,385.871,0,390.5,0a396.754,396.754,0,0,1,39.926,2.016A391.482,391.482,0,0,1,469.2,7.934c12.581,2.574,25.172,5.812,37.423,9.623,12.115,3.768,24.186,8.186,35.878,13.131,11.583,4.9,23.068,10.432,34.135,16.444,10.989,5.969,21.821,12.55,32.2,19.56,10.326,6.976,20.441,14.54,30.062,22.48,9.6,7.921,18.928,16.4,27.731,25.2s17.283,18.133,25.2,27.731c7.941,9.622,15.5,19.736,22.48,30.062,7.01,10.377,13.591,21.209,19.56,32.2,6.012,11.067,11.544,22.552,16.444,34.135,4.945,11.692,9.363,23.763,13.131,35.877,3.811,12.252,7.048,24.843,9.623,37.423a391.516,391.516,0,0,1,5.917,38.773,396.35,396.35,0,0,1,0,79.853,391.493,391.493,0,0,1-5.917,38.773c-2.574,12.581-5.812,25.172-9.623,37.423-3.768,12.114-8.186,24.185-13.131,35.878-4.9,11.583-10.432,23.068-16.444,34.135-5.969,10.988-12.55,21.821-19.56,32.2-6.976,10.326-14.54,20.441-22.48,30.062-7.921,9.6-16.4,18.928-25.2,27.731s-18.133,17.283-27.731,25.2c-9.621,7.94-19.736,15.5-30.062,22.48-10.376,7.01-21.209,13.591-32.2,19.56-11.067,6.012-22.552,11.544-34.135,16.444-11.693,4.946-23.763,9.363-35.878,13.131-12.252,3.811-24.843,7.048-37.423,9.623a391.493,391.493,0,0,1-38.773,5.917A396.751,396.751,0,0,1,390.5,781Z" transform="translate(-9509.95 -6722)" fill="#fff"/>
    <path id="Subtraction_9" data-name="Subtraction 9" d="M303.721,611.438c-9.711,0-19.509-.461-29.122-1.37-9.483-.9-19.02-2.251-28.348-4.027-9.213-1.753-18.449-3.96-27.451-6.56-8.9-2.571-17.8-5.589-26.43-8.968-8.555-3.349-17.062-7.135-25.285-11.253-8.162-4.087-16.242-8.6-24.016-13.414-7.731-4.787-15.342-9.986-22.622-15.451-7.256-5.447-14.357-11.289-21.1-17.363s-13.288-12.51-19.464-19.152-12.136-13.652-17.7-20.816c-5.58-7.187-10.9-14.709-15.809-22.357-4.935-7.686-9.577-15.685-13.8-23.774-4.249-8.146-8.172-16.579-11.659-25.066-3.519-8.562-6.681-17.389-9.4-26.234-2.746-8.939-5.105-18.116-7.013-27.279-1.931-9.274-3.446-18.761-4.5-28.2A276.792,276.792,0,0,0,269.942,556.486h.016C394.7,556.48,504.4,472.2,536.721,351.537,576.16,204.31,488.5,52.437,341.31,12.987A277.057,277.057,0,0,0,269.62,3.5c-4.937,0-9.939.136-14.868.4,7.987-1.287,16.134-2.267,24.213-2.915C287.143.333,295.473,0,303.721,0a310.441,310.441,0,0,1,31.25,1.578,306.338,306.338,0,0,1,30.347,4.633c9.846,2.015,19.7,4.55,29.291,7.533,9.482,2.95,18.93,6.409,28.081,10.28,9.067,3.836,18.056,8.167,26.717,12.874,8.6,4.673,17.078,9.825,25.2,15.313,8.082,5.461,16,11.383,23.529,17.6,7.512,6.2,14.814,12.84,21.7,19.732s13.527,14.2,19.727,21.71c6.214,7.532,12.134,15.45,17.595,23.535,5.487,8.123,10.637,16.6,15.309,25.207,4.705,8.664,9.036,17.656,12.87,26.724,3.871,9.154,7.329,18.6,10.278,28.088,2.983,9.592,5.517,19.45,7.531,29.3a306.568,306.568,0,0,1,4.632,30.355,310.366,310.366,0,0,1,0,62.516,306.55,306.55,0,0,1-4.632,30.355c-2.015,9.849-4.549,19.706-7.531,29.3-2.949,9.484-6.407,18.934-10.278,28.088-3.835,9.069-8.165,18.06-12.87,26.724-4.672,8.6-9.823,17.083-15.309,25.206-5.461,8.085-11.38,16-17.595,23.535-6.2,7.514-12.836,14.818-19.727,21.71s-14.193,13.531-21.7,19.732c-7.531,6.217-15.447,12.138-23.529,17.6-8.122,5.488-16.6,10.64-25.2,15.313-8.662,4.707-17.651,9.038-26.717,12.874-9.151,3.872-18.6,7.33-28.081,10.28-9.59,2.984-19.444,5.518-29.291,7.533a306.335,306.335,0,0,1-30.347,4.633A310.428,310.428,0,0,1,303.721,611.438Z" transform="translate(-8735.26 -6249.643) rotate(150)" fill="#fff"/>
  </g>
</svg>
